<?xml version="1.0" encoding="UTF-8" standalone="no"?>
<!-- Created with Inkscape (http://www.inkscape.org/) -->

<svg
   width="4in"
   height="4in"
   viewBox="0 0 384 384"
   version="1.1"
   id="svg1"
   inkscape:version="1.4.2 (ebf0e940, 2025-05-08)"
   xml:space="preserve"
   sodipodi:docname="button.svg"
   xmlns:inkscape="http://www.inkscape.org/namespaces/inkscape"
   xmlns:sodipodi="http://sodipodi.sourceforge.net/DTD/sodipodi-0.dtd"
   xmlns="http://www.w3.org/2000/svg"
   xmlns:svg="http://www.w3.org/2000/svg"><sodipodi:namedview
     id="namedview1"
     pagecolor="#ffffff"
     bordercolor="#000000"
     borderopacity="0.25"
     inkscape:showpageshadow="2"
     inkscape:pageopacity="0.0"
     inkscape:pagecheckerboard="0"
     inkscape:deskcolor="#d1d1d1"
     inkscape:document-units="px"
     inkscape:zoom="0.8600963"
     inkscape:cx="137.77527"
     inkscape:cy="259.85462"
     inkscape:window-width="1440"
     inkscape:window-height="900"
     inkscape:window-x="0"
     inkscape:window-y="0"
     inkscape:window-maximized="0"
     inkscape:current-layer="layer1" /><defs
     id="defs1" /><g
     inkscape:label="Layer 1"
     inkscape:groupmode="layer"
     id="layer1"
     style="display:inline"><path
       style="fill:#000000"
       d="m 179.02113,271.14603 c -4.07659,-0.42043 -9.01843,-1.10395 -11.40529,-1.57751 -8.24619,-1.63606 -15.94032,-4.76492 -21.13624,-8.59518 -1.48254,-1.09288 -3.70622,-2.58826 -4.9415,-3.32306 -3.9423,-2.34504 -8.95213,-7.2175 -14.31163,-13.91919 -8.45591,-10.57354 -12.41091,-19.49709 -14.45835,-32.62194 -1.16697,-7.48075 -1.2352,-22.02948 -0.14826,-31.61561 0.66927,-5.90249 1.44362,-9.43359 3.35784,-15.31195 2.15124,-6.60623 2.95556,-8.39227 5.28195,-11.72901 1.0271,-1.47317 2.65654,-4.0752 3.62098,-5.78229 2.0678,-3.66008 4.33745,-6.90951 7.58825,-10.86404 4.25361,-5.17442 4.50184,-5.35269 15.516,-11.14321 8.39602,-4.41408 9.00114,-4.64905 18.67735,-7.25277 7.55428,-2.03273 10.76237,-2.54227 27.30455,-4.3368 6.7506,-0.73231 13.51398,-0.13494 21.96861,1.94038 3.50326,0.85993 4.91972,1.55829 10.31921,5.08763 4.65836,3.04491 7.14035,4.44557 10.39755,5.86762 1.31906,0.57588 2.74086,1.84628 8.47878,7.57596 8.89508,8.88229 14.56075,15.84311 19.92634,24.48142 4.20139,6.76401 5.21038,9.24393 6.0813,14.94669 1.00725,6.59552 1.17958,9.82364 0.88509,16.57994 -0.25224,5.78693 -0.38653,6.86015 -1.58353,12.65533 -2.56084,12.39811 -4.19031,18.23249 -6.33585,22.68578 -1.64819,3.42098 -8.39772,14.68183 -10.39137,17.33684 -3.49828,4.65879 -7.50826,7.9854 -18.50188,15.34886 -8.98789,6.02003 -12.14054,7.559 -19.38933,9.4649 -2.36498,0.62181 -5.41919,1.64613 -6.78712,2.27627 -1.60351,0.73864 -3.24135,1.25239 -4.60994,1.44602 -2.09014,0.29571 -23.16261,0.61003 -25.40351,0.37892 z m 21.26881,-4.28371 c 7.50709,-0.87651 12.44827,-1.91047 17.28596,-3.61715 3.36389,-1.18673 5.74044,-2.40192 10.59343,-5.41667 2.21311,-1.37482 5.3073,-3.2661 6.87599,-4.20285 3.09461,-1.84797 8.51609,-6.7295 18.15485,-16.34677 5.35909,-5.34713 6.64384,-7.11662 9.94767,-13.70092 2.79258,-5.5654 3.68408,-8.95086 4.11594,-15.6302 0.10221,-1.58079 0.56253,-6.04293 1.02294,-9.91587 1.25481,-10.55551 1.17692,-13.46573 -0.63463,-23.71185 -1.11143,-6.2862 -2.02913,-8.98669 -5.03009,-14.80194 -2.77335,-5.37419 -3.79154,-6.82923 -7.33863,-10.48725 -1.38141,-1.42461 -4.49485,-4.8536 -6.91876,-7.61998 -4.4638,-5.0945 -5.81158,-6.28206 -10.3356,-9.10693 -1.31277,-0.81972 -3.81924,-2.63822 -5.56993,-4.04112 -4.77408,-3.82566 -5.73146,-4.32041 -9.90499,-5.11863 -3.75453,-0.71808 -12.00389,-1.85247 -13.47129,-1.85247 -0.77477,0 -2.35876,-0.32843 -3.51998,-0.72983 -1.16121,-0.40141 -4.31003,-1.30312 -6.99738,-2.00381 -2.68734,-0.70068 -5.83995,-1.53435 -7.0058,-1.85259 -3.70696,-1.01189 -5.08028,-1.01399 -11.67626,-0.0179 -3.93831,0.59478 -7.08446,1.24702 -9.05362,1.87697 -1.65983,0.53099 -5.15193,1.56431 -7.76024,2.29627 -5.81031,1.63054 -6.53948,1.94749 -10.18055,4.42525 -1.59329,1.08424 -3.79455,2.37816 -4.89169,2.87539 -3.94187,1.78645 -8.22789,5.58312 -13.47773,11.93892 -2.08141,2.51989 -4.58379,5.47616 -5.56085,6.5695 -1.47628,1.65197 -2.38125,3.18899 -5.35537,9.09572 -2.53406,5.03274 -3.716,7.71062 -4.04851,9.17253 -0.25828,1.13559 -0.97625,3.32305 -1.59549,4.86103 -0.92024,2.28559 -1.23572,3.61002 -1.72723,7.25129 -0.33075,2.45022 -0.88897,5.36031 -1.2405,6.46686 -0.55141,1.73571 -0.63466,2.60379 -0.60644,6.32316 0.0383,5.0446 0.51916,8.72319 2.2619,17.30308 1.16645,5.74266 1.4618,6.7324 3.54208,11.86969 2.45778,6.06954 3.25519,7.74783 5.87207,12.3589 3.83575,6.75878 8.96874,12.95653 14.96495,18.0692 2.34199,1.99691 5.41312,4.61476 6.82473,5.81746 2.29638,1.95653 2.81089,2.25629 4.88759,2.8476 1.27657,0.36349 2.60357,0.88089 2.94889,1.14979 1.21963,0.94968 2.46427,1.42207 4.55225,1.72774 1.16125,0.17 3.66341,0.83405 5.56036,1.47566 2.4839,0.84013 4.21482,1.23314 6.18584,1.40451 1.50526,0.13087 3.08931,0.37196 3.52011,0.53575 0.43079,0.16379 4.82539,0.88841 9.76577,1.61026 4.94037,0.72186 9.11184,1.36137 9.26992,1.42114 0.15807,0.0598 0.67542,0.0544 1.14966,-0.012 0.47424,-0.0664 2.54364,-0.31701 4.59866,-0.55696 z m -21.55623,-13.63236 c -1.42271,-0.30071 -3.36277,-0.82226 -4.31124,-1.159 -0.94848,-0.33674 -3.08254,-0.93526 -4.74237,-1.33003 -2.1885,-0.52052 -3.84725,-1.15439 -6.03575,-2.30649 -6.98925,-3.67938 -11.95676,-7.79134 -16.20786,-13.4164 -1.33623,-1.7681 -3.41065,-4.50797 -4.60981,-6.0886 -3.6222,-4.77448 -8.70518,-14.9709 -10.35579,-20.77363 -1.04157,-3.66164 -2.6932,-12.75742 -2.96929,-16.35234 -0.3114,-4.05462 0.0755,-12.0026 0.79029,-16.23568 0.60496,-3.58253 3.29573,-11.5015 4.95243,-14.57505 1.91186,-3.54694 5.67824,-7.96722 11.48208,-13.47554 4.21046,-3.99607 6.4569,-5.66734 10.7385,-7.98907 1.65223,-0.89593 3.41193,-2.17411 4.87083,-3.53798 2.46763,-2.30688 4.58319,-3.47971 7.85479,-4.35455 1.06294,-0.28424 3.48467,-0.93456 5.38161,-1.44516 2.38003,-0.64063 4.02802,-0.91794 5.31721,-0.89474 5.17942,0.0932 13.11009,9.5e-4 15.66419,-0.18226 3.42892,-0.24596 5.68598,0.18357 13.07745,2.48869 8.84994,2.75997 12.58456,4.37878 15.84198,6.86687 1.00877,0.77052 3.49989,2.60754 5.53582,4.08226 4.10375,2.97255 8.69163,7.21167 10.70794,9.89395 1.70441,2.26737 2.67672,4.245 3.83069,7.79143 0.51438,1.58079 1.70638,4.55555 2.64891,6.61057 4.1731,9.09882 6.61332,19.43218 6.17647,26.15489 -0.26784,4.1218 -2.1421,14.6526 -3.1204,17.5324 -1.19353,3.51335 -4.01546,9.90174 -5.45854,12.35725 -2.08582,3.54915 -7.71749,10.83847 -10.55808,13.66579 -4.8547,4.83202 -8.98584,7.18631 -18.99422,10.82461 -14.84008,5.39475 -18.2567,6.22618 -25.10497,6.10926 -1.92113,-0.0328 -4.91567,0.018 -6.65454,0.11283 -2.50991,0.13692 -3.69477,0.0598 -5.74833,-0.37428 z m 23.28073,-4.02221 c 3.49397,-0.84345 12.24482,-4.1142 15.91504,-5.94847 7.80394,-3.90019 15.48872,-9.71445 19.13026,-14.47384 2.74081,-3.58215 6.54716,-9.86206 7.95429,-13.12338 2.09869,-4.86414 2.78261,-6.99179 3.43436,-10.68419 0.31623,-1.79152 0.85381,-4.37827 1.19463,-5.74833 0.46,-1.84913 0.62454,-3.41681 0.63853,-6.08373 0.0165,-3.14488 -0.0962,-4.04052 -0.9044,-7.18541 -0.50778,-1.97598 -1.1273,-5.43956 -1.37671,-7.69682 -0.63442,-5.74172 -1.52274,-9.04301 -3.48999,-12.97 -3.14014,-6.26828 -8.77064,-13.86535 -14.11857,-19.04976 -4.05312,-3.9292 -7.1775,-5.82356 -11.9996,-7.27555 -1.42002,-0.42759 -5.10036,-1.81601 -8.17854,-3.08538 -5.50131,-2.26862 -5.70457,-2.32689 -11.92778,-3.41915 -9.36423,-1.64355 -12.90629,-1.5202 -21.86904,0.76152 -6.71947,1.71064 -10.54893,3.43646 -16.47778,7.42604 -5.4007,3.63418 -10.27122,7.58167 -12.01874,9.74103 -5.46751,6.75604 -10.6446,16.70297 -14.47317,27.80783 -1.23009,3.56791 -1.23944,3.62543 -1.35473,8.33508 -0.10144,4.14434 -0.002,5.57599 0.78998,11.35294 0.5895,4.30091 1.1543,7.31352 1.61653,8.62249 0.39075,1.10656 1.2248,3.55087 1.85342,5.43181 1.48334,4.43834 3.09181,7.44389 6.62968,12.38801 1.58364,2.21311 3.54031,5.18786 4.34816,6.61058 2.55799,4.50489 7.64367,9.02445 13.4123,11.91931 4.12769,2.07138 9.64119,3.44048 16.12294,4.0036 2.53669,0.22038 4.00704,0.53053 6.32316,1.33377 2.55724,0.88686 3.25915,1.02105 4.59866,0.87916 0.98495,-0.10434 2.12246,-0.0156 3.01787,0.23554 2.248,0.63039 8.40227,0.57291 11.20924,-0.1047 z m -25.37614,-20.2946 c -3.49707,-0.94132 -6.81808,-3.12363 -8.23081,-5.40866 -1.56914,-2.53803 -1.24871,-6.63162 0.86271,-11.02144 1.60123,-3.32909 4.18278,-5.4637 7.39272,-6.11282 2.1826,-0.44137 3.5977,-0.17582 6.3074,1.18359 1.75151,0.87871 2.50321,1.46722 3.53413,2.76693 1.68957,2.13008 3.2082,5.27675 3.45508,7.15908 0.3861,2.94391 -0.85216,7.11022 -2.70606,9.10494 -2.12654,2.28805 -6.88632,3.33208 -10.61517,2.32838 z m 6.10019,-3.52559 c 2.12474,-0.99429 3.95673,-2.5566 5.09711,-4.34678 3.24699,-5.09715 -4.26011,-13.20276 -9.91229,-10.70253 -3.70827,1.64035 -6.43282,6.6543 -5.63568,10.37126 1.07393,5.00755 5.50663,6.99173 10.45086,4.67805 z m 33.50306,-2.74512 c -3.09194,-0.9028 -7.41385,-3.68963 -8.78063,-5.6619 -0.8169,-1.17879 -0.84734,-1.33957 -0.8347,-4.40955 0.02,-4.86411 0.8619,-7.67993 2.934,-9.81351 1.52258,-1.56775 3.21938,-2.22156 6.14755,-2.36875 2.94702,-0.14815 5.24528,0.48553 7.6608,2.11223 2.05185,1.3818 3.05639,2.87636 4.12512,6.1374 1.2463,3.80286 1.28058,6.15557 0.12299,8.44015 -1.00695,1.98729 -3.39411,4.32905 -5.24972,5.14987 -1.65705,0.733 -4.39843,0.9183 -6.12541,0.41406 z m 1.78126,-6.81632 c 2.22758,-0.57823 3.9532,-3.29093 4.18597,-6.58036 0.31049,-4.38786 -1.76233,-6.89489 -5.70576,-6.90102 -0.58276,-9.1e-4 -1.81169,0.38806 -2.82347,0.89365 -2.77478,1.38658 -4.33599,3.93716 -4.33599,7.0838 0,1.65112 0.7541,3.89064 1.56733,4.65462 1.3998,1.31505 4.08323,1.63551 7.11192,0.84931 z m -52.70099,-23.80665 c -0.8953,-0.28632 -2.07598,-0.79757 -2.62375,-1.13611 -1.50926,-0.93277 -3.32752,-3.05175 -4.18111,-4.87262 -0.68271,-1.45636 -0.76464,-1.96987 -0.76464,-4.79271 0,-2.88577 0.0707,-3.30548 0.81005,-4.81118 0.94587,-1.9262 2.60852,-3.67442 5.25213,-5.52244 4.17923,-2.92149 6.07125,-3.42685 9.75846,-2.60652 5.41002,1.20361 8.10216,3.48278 9.23414,7.81763 0.5256,2.01271 0.31788,4.27524 -0.66817,7.27814 -0.81587,2.48463 -1.57146,3.73729 -3.24215,5.37497 -3.26267,3.19822 -9.27347,4.6465 -13.57496,3.27084 z m 10.18255,-3.49374 c 1.07857,-0.49143 1.84177,-2.25034 2.2666,-5.22372 0.41541,-2.90737 0.0945,-5.16014 -1.05159,-7.38299 -1.45258,-2.81722 -3.38839,-4.0256 -6.46445,-4.03526 -3.27848,-0.0103 -4.56431,1.18659 -6.01388,5.59786 -0.93855,2.85617 -1.00803,4.11675 -0.33278,6.03795 0.92398,2.6289 2.49982,4.34017 4.78249,5.19349 1.32809,0.49647 5.56871,0.37988 6.81361,-0.18733 z m 31.05261,-5.71569 c -2.7952,-0.65148 -3.07217,-0.78558 -5.7399,-2.77919 -4.04613,-3.0237 -5.41859,-5.48297 -5.20434,-9.32552 0.1701,-3.05069 1.31082,-5.40601 3.87393,-7.99874 l 1.95294,-1.9755 3.18177,-0.7502 c 5.52532,-1.30278 7.22519,-1.03653 11.45812,1.79464 2.03075,1.35825 3.00817,2.20914 3.38313,2.94515 0.62134,1.21963 1.25423,8.38525 0.95332,10.79363 -0.32076,2.56733 -2.59328,5.00324 -6.27491,6.72608 -2.4556,1.14912 -4.45381,1.2992 -7.58406,0.56965 z m 4.71437,-2.74332 c 3.07504,-0.91319 4.82775,-4.41009 4.82511,-9.6268 -0.001,-2.40471 -0.0933,-2.90499 -0.77193,-4.19341 -0.42381,-0.80463 -1.24927,-1.88327 -1.83437,-2.39699 -1.16928,-1.02665 -0.93345,-1.01342 -5.71593,-0.32054 -3.61132,0.5232 -5.22326,1.76835 -6.34219,4.89902 -0.58984,1.65032 -0.60638,4.75439 -0.0327,6.12751 0.67901,1.6251 3.05483,4.8006 4.0421,5.40264 1.10122,0.67153 3.76703,0.72117 5.82987,0.10857 z"
       id="path1" /></g><g
     inkscape:groupmode="layer"
     id="layer2"
     inkscape:label="Layer 2"
     style="display:none"><path
       style="fill:#000000"
       d="m 192.8691,290.20165 c -1.33608,-0.2696 -2.22514,-0.9961 -4.37192,-3.57258 -0.81747,-0.98109 -2.94114,-4.86813 -2.94114,-5.3833 0,-0.38007 -0.69044,-0.71552 -3.5897,-1.74401 -1.34252,-0.47625 -2.53984,-0.94799 -2.66072,-1.04831 -0.12088,-0.10032 -0.82078,-0.43447 -1.55534,-0.74256 -2.36677,-0.99267 -6.05559,-2.70744 -9.82451,-4.56696 -2.02276,-0.998 -3.75635,-1.81454 -3.85242,-1.81454 -0.0961,0 -0.47623,-0.20304 -0.84481,-0.45121 -0.36857,-0.24816 -0.91218,-0.5106 -1.20803,-0.58319 -0.29585,-0.0726 -1.72478,-0.70263 -3.17541,-1.4001 -1.45062,-0.69747 -3.85638,-1.85495 -5.34612,-2.57219 -1.48974,-0.71723 -2.86439,-1.45983 -3.05477,-1.65022 -0.19039,-0.19038 -0.50366,-0.35776 -0.69615,-0.37194 -0.19249,-0.0142 -0.71416,-0.27878 -1.15925,-0.588 -0.4451,-0.30922 -0.9048,-0.62187 -1.02156,-0.69477 -0.41237,-0.25746 -8.91619,-4.39 -9.03361,-4.39 -0.0655,0 -0.76652,-0.30311 -1.5578,-0.67357 -0.79128,-0.37047 -1.51883,-0.67357 -1.61678,-0.67357 -0.16322,0 -0.84278,-0.28232 -3.34219,-1.38847 -0.49743,-0.22015 -0.95148,-0.5229 -1.00899,-0.67279 -0.0575,-0.14989 -0.19038,-0.2195 -0.29524,-0.15469 -0.2016,0.12459 -2.12647,-0.7886 -4.22893,-2.00628 -0.6932,-0.40148 -1.60678,-0.84034 -2.03017,-0.97523 -0.42338,-0.1349 -1.2894,-0.4888 -1.92448,-0.78646 -0.63508,-0.29765 -1.88353,-0.80156 -2.77433,-1.1198 -0.8908,-0.31824 -1.67022,-0.65707 -1.73204,-0.75294 -0.0618,-0.0959 -0.30726,-0.23512 -0.54542,-0.30945 -0.61172,-0.1909 -0.5531,-0.56596 0.0642,-0.41101 0.93524,0.23473 0.28207,-0.25286 -0.79248,-0.59158 -1.06715,-0.33639 -1.31372,-0.6923 -0.82097,-1.18505 0.43382,-0.43382 1.33115,-0.2235 3.52182,0.82549 1.19368,0.57158 2.54141,1.10495 3.73977,1.48002 0.68087,0.2131 1.43321,0.5154 1.67188,0.67178 0.23867,0.15639 0.85072,0.40314 1.36012,0.54834 1.57009,0.44755 3.19371,1.04601 3.65138,1.34589 0.24011,0.15733 0.85099,0.42445 1.35752,0.59361 0.50652,0.16917 1.13745,0.4978 1.40207,0.73031 0.45801,0.40242 1.20951,0.7654 4.04142,1.95203 0.68801,0.28829 1.42413,0.71755 1.63582,0.95392 0.21169,0.23637 0.688,0.54652 1.05847,0.68924 0.37046,0.14271 1.19318,0.55654 1.82826,0.91962 1.6422,0.93885 6.88992,3.54713 8.37153,4.16091 1.79505,0.74363 4.47174,1.98812 6.25458,2.90798 0.84678,0.4369 1.886,0.90463 2.30939,1.0394 0.42339,0.13477 0.9863,0.35529 1.25092,0.49003 0.77968,0.39703 6.97253,3.36477 7.60172,3.64291 0.31754,0.14038 1.35677,0.60321 2.30939,1.02851 0.95262,0.42531 2.25165,0.96987 2.88673,1.21014 0.63508,0.24027 2.80357,1.26552 4.81887,2.27834 2.01529,1.01282 4.35355,2.08982 5.19612,2.39334 0.84257,0.30352 1.80483,0.67158 2.13837,0.81791 0.33354,0.14633 0.67827,0.26605 0.76608,0.26605 0.0878,0 0.60499,0.18458 1.14929,0.41019 l 0.98965,0.41019 1.07175,-0.49066 c 1.19418,-0.54672 3.57099,-1.19426 5.03924,-1.3729 1.28698,-0.15659 4.52596,0.71218 5.41928,1.45357 0.50126,0.41601 1.45392,2.5154 1.82234,4.01593 0.37378,1.52233 0.27604,2.39749 -0.3233,2.89491 -0.15336,0.12727 -0.27883,0.40023 -0.27883,0.60658 0,0.57971 -0.91921,2.0127 -1.74386,2.71856 -1.79882,1.53973 -3.47904,2.06555 -5.37675,1.68263 z m 2.98296,-1.91702 c 1.72038,-1.08379 3.1754,-3.16635 3.1754,-4.54494 0,-0.9575 -1.50327,-4.19848 -2.04355,-4.40581 -0.44217,-0.16967 -0.84318,0.33619 -0.84318,1.06364 0,0.71757 -0.48877,1.19261 -0.96489,0.93779 -0.56871,-0.30436 -0.61892,-0.53541 -0.19682,-0.90569 0.21555,-0.1891 0.56512,-0.49536 0.77681,-0.68059 0.67974,-0.59478 0.47559,-0.85344 -0.87467,-1.10822 -0.69276,-0.13071 -1.28886,-0.20547 -1.32466,-0.16612 -0.0358,0.0393 -0.12539,0.35299 -0.19909,0.69699 -0.103,0.48077 -0.0691,0.62546 0.14641,0.62546 0.15422,0 0.38785,0.12947 0.51917,0.28771 0.19242,0.23185 0.17746,0.3813 -0.0771,0.76979 -0.54078,0.82533 -1.0768,0.53057 -1.0768,-0.59212 0,-0.34563 -0.10482,-0.46538 -0.40733,-0.46538 -0.33072,0 -0.39004,-0.0905 -0.31536,-0.48112 0.0866,-0.4529 0.0434,-0.48113 -0.73601,-0.48113 -0.45538,0 -0.8893,0.0992 -0.96426,0.22052 -0.0952,0.15406 0.0107,0.18362 0.35152,0.0981 0.50067,-0.12567 1.04688,0.25417 0.77074,0.53597 -0.0785,0.0801 -0.14267,0.54842 -0.14267,1.04076 v 0.89517 l -0.72092,0.0597 c -0.5793,0.048 -0.74405,0.15183 -0.83866,0.5288 -0.0648,0.25802 -0.0657,0.6047 -0.002,0.77041 0.0636,0.16572 -0.0163,0.5564 -0.17754,0.86819 -0.23523,0.45489 -0.24779,0.65211 -0.0636,0.99817 0.70577,1.32581 2.28968,2.93401 3.40508,3.45729 0.9338,0.43809 2.10701,0.4284 2.82406,-0.0233 z m -6.04372,-8.60591 c 0.22321,-0.26896 0.20908,-0.30139 -0.10482,-0.24056 -0.19956,0.0387 -0.39887,0.17856 -0.44293,0.31087 -0.1143,0.3433 0.24249,0.29751 0.54775,-0.0703 z m -51.45037,1.64259 c -0.30869,-0.17979 -0.48228,-0.75438 -0.22791,-0.75438 0.30895,0 0.85337,0.43404 0.85337,0.68035 0,0.328 -0.15743,0.34663 -0.62546,0.074 z m 85.47537,-1.76473 c -0.23712,-0.344 -0.95749,-1.19694 -1.60081,-1.89541 -1.93985,-2.10614 -3.6275,-4.18024 -4.44131,-5.45827 -0.77404,-1.2156 -2.82122,-3.93668 -3.7701,-5.01116 -0.28042,-0.31754 -0.90114,-1.02397 -1.37939,-1.56985 -0.47824,-0.54588 -1.35685,-1.97481 -1.95247,-3.17541 -1.69337,-3.41334 -2.92813,-5.31033 -6.22971,-9.57088 -2.45447,-3.16739 -2.36559,-3.10666 -7.20096,-4.92068 -1.87258,-0.7025 -4.25413,-1.62386 -5.29234,-2.04747 -2.79735,-1.14134 -10.17577,-3.66131 -13.14591,-4.48975 -1.42894,-0.39856 -2.73936,-0.79727 -2.91206,-0.88601 -0.1727,-0.0888 -0.83789,-0.25636 -1.4782,-0.37247 -0.64031,-0.11611 -1.96405,-0.46818 -2.94165,-0.78239 -0.97761,-0.31421 -1.85703,-0.57129 -1.95428,-0.57129 -0.0973,0 -0.91767,0.64945 -1.82316,1.44323 -1.07702,0.94415 -1.91186,1.51472 -2.41418,1.64998 -1.35001,0.36352 -2.89061,0.56106 -4.38465,0.5622 -1.26662,9.8e-4 -1.56444,-0.0691 -2.31317,-0.54388 -1.26024,-0.79922 -1.81178,-1.56358 -2.39767,-3.32284 -0.69396,-2.08376 -0.60783,-3.3426 0.37431,-5.47126 0.92123,-1.99663 1.91254,-3.00303 3.9054,-3.96489 2.29341,-1.10691 3.94559,-1.31122 4.96411,-0.61386 0.2117,0.14494 0.70135,0.34908 1.08812,0.45365 0.83462,0.22565 2.79407,2.23009 2.96537,3.03347 0.0609,0.28579 0.19141,0.71854 0.28993,0.96168 0.0985,0.24314 0.17913,0.82098 0.17913,1.28411 0,0.80363 0.0329,0.85258 0.72168,1.07315 0.39693,0.12712 1.3279,0.51106 2.06883,0.85321 0.74093,0.34214 1.76192,0.77293 2.26887,0.95731 0.50695,0.18438 1.17202,0.54584 1.47793,0.80324 0.3059,0.25741 1.05082,0.63819 1.65538,0.84618 0.60455,0.208 1.19521,0.45273 1.31258,0.54385 0.11737,0.0911 0.3866,0.21715 0.59829,0.28006 0.2117,0.0629 1.25092,0.42514 2.30939,0.80495 1.05847,0.37982 2.6173,0.91267 3.46408,1.1841 0.84677,0.27144 2.1891,0.74088 2.98295,1.04321 2.16953,0.82623 3.77095,1.32275 5.54383,1.71887 0.87924,0.19646 1.70196,0.43472 1.82826,0.52948 0.2044,0.15334 0.84815,0.36643 2.20224,0.72897 0.56605,0.15155 0.55559,-0.15891 -0.0314,-0.93321 -0.25546,-0.33694 -0.91216,-1.39203 -1.45933,-2.34466 -0.54718,-0.95262 -1.15337,-1.90524 -1.34709,-2.11693 -0.19371,-0.2117 -0.55886,-0.77461 -0.81143,-1.25092 -0.83116,-1.56743 -1.56159,-2.78025 -2.08629,-3.46408 -0.28425,-0.37046 -0.7527,-1.14126 -1.04099,-1.71287 -0.2883,-0.57162 -1.55534,-2.62067 -2.81566,-4.55345 -1.26031,-1.93278 -2.29147,-3.56431 -2.29147,-3.62562 0,-0.0613 -0.38971,-0.71944 -0.86602,-1.46254 -0.47631,-0.74309 -0.86602,-1.39424 -0.86602,-1.447 0,-0.0528 -0.25981,-0.45457 -0.57735,-0.89292 -0.31754,-0.43836 -0.57734,-0.87412 -0.57734,-0.96838 0,-0.20892 -0.74916,-1.28272 -1.17814,-1.68868 -0.17167,-0.16245 -0.7691,-0.98818 -1.32762,-1.83495 -0.55853,-0.84678 -1.17418,-1.7561 -1.36812,-2.02071 -0.19393,-0.26462 -0.84927,-1.34714 -1.4563,-2.40561 -0.60704,-1.05847 -1.42147,-2.38687 -1.80985,-2.95199 l -0.70616,-1.02751 -2.57205,-0.031 c -2.56131,-0.0308 -2.57849,-0.0341 -4.11165,-0.77115 -4.23636,-2.03668 -5.57185,-3.94854 -4.8158,-6.89418 1.00702,-3.92347 1.6387,-5.27344 2.84029,-6.07007 1.71294,-1.13563 3.03838,-1.43804 5.12332,-1.1689 1.36957,0.1768 1.80072,0.32505 2.70481,0.93006 1.20621,0.80718 1.93897,1.54191 2.38996,2.39634 0.72769,1.3787 1.09987,2.29589 1.20929,2.98018 0.12341,0.77174 -0.39871,3.81368 -0.70901,4.13081 -0.52382,0.53534 0.30636,2.66861 2.35179,6.04331 0.40753,0.67236 0.74095,1.26064 0.74095,1.30728 0,0.0466 0.49796,0.76683 1.10658,1.60042 0.60862,0.83359 1.51736,2.15055 2.01943,2.92659 1.24503,1.92445 2.52383,3.75264 2.98039,4.26083 0.41692,0.46407 2.36135,3.80482 2.36135,4.05707 0,0.0868 0.24541,0.52151 0.54536,0.96595 0.29995,0.44444 0.64931,1.10651 0.77634,1.47127 0.12704,0.36476 0.42869,0.96631 0.67034,1.33678 0.24165,0.37046 0.62824,1.06328 0.85909,1.53959 0.23085,0.47631 0.94107,1.47223 1.57826,2.21316 0.63718,0.74093 1.62894,2.03996 2.2039,2.88673 0.57496,0.84677 1.48273,2.17927 2.01727,2.96111 0.53453,0.78183 0.97188,1.45511 0.97188,1.49616 0,0.0718 0.43612,0.70547 2.31195,3.35909 0.47773,0.6758 1.24066,1.85879 1.69542,2.62886 0.87413,1.48022 1.65138,2.13499 3.01701,2.54158 1.06055,0.31576 4.35209,1.74739 7.12061,3.09707 1.27016,0.61922 2.69909,1.26229 3.17541,1.42905 2.83439,0.99235 4.9325,1.65986 6.54326,2.08173 2.67878,0.70159 6.03001,1.86095 6.2758,2.17111 0.11751,0.1483 0.3224,0.26963 0.45529,0.26963 0.22729,0 1.50324,0.38972 2.79101,0.85248 1.79054,0.64342 3.49369,1.78423 3.16076,2.11716 -0.18531,0.18531 -3.85145,-0.45777 -5.40187,-0.94754 -0.84007,-0.26538 -1.71225,-0.48251 -1.93818,-0.48251 -0.22593,0 -0.93592,-0.12447 -1.57777,-0.27661 -0.64184,-0.15213 -1.7732,-0.41546 -2.51413,-0.58516 -1.39204,-0.31884 -4.66433,-1.40016 -5.00367,-1.65345 -0.10584,-0.079 -0.71206,-0.3322 -1.34714,-0.56265 -2.34332,-0.85033 -4.078,-1.5069 -5.48479,-2.076 -2.99307,-1.2108 -3.97435,-1.54657 -4.70339,-1.60938 -0.90218,-0.0777 -1.10365,0.25547 -0.42379,0.70093 0.26275,0.17216 0.89599,1.05011 1.4072,1.95101 1.63731,2.88539 4.36371,7.03211 6.05623,9.2112 0.90434,1.16432 1.75685,2.33344 1.89448,2.59806 0.13762,0.26462 0.58434,0.84725 0.99271,1.29473 0.40836,0.44749 0.74247,0.91563 0.74247,1.04032 0,0.24774 1.58137,2.68664 2.20773,3.40491 0.3792,0.43485 0.99783,1.44009 1.85605,3.01598 0.23043,0.42312 0.82953,1.24584 1.33134,1.82826 0.58816,0.68265 0.94713,1.29831 1.01019,1.73253 0.0538,0.37046 0.16025,0.86842 0.23656,1.10658 0.22391,0.69886 -0.56308,0.55874 -1.08087,-0.19245 z m -58.86932,-39.46703 c 2.09431,-0.94632 3.46408,-3.05399 3.46408,-5.33018 0,-1.58969 -1.19857,-3.38796 -2.86127,-4.29292 -1.14294,-0.62207 -1.87741,-0.6428 -3.48921,-0.0985 -2.13834,0.72213 -3.75307,2.66009 -4.25465,5.10633 -0.25642,1.25062 -0.0694,2.17655 0.43971,2.17655 0.18282,0 0.18374,-0.0513 0.004,-0.23094 -0.35771,-0.35771 -0.27392,-0.87182 0.19571,-1.20076 0.39787,-0.27868 0.44283,-0.26969 0.66675,0.13342 0.27669,0.49811 0.32261,1.1391 0.10058,1.40413 -0.0842,0.10055 -0.26456,0.51177 -0.40072,0.91383 -0.19352,0.5714 -0.19695,0.79199 -0.0157,1.01035 0.31978,0.38532 0.50629,0.34983 0.62907,-0.11971 0.0801,-0.30641 0.23055,-0.3846 0.64791,-0.33678 0.49338,0.0565 0.53858,0.12443 0.48981,0.73584 -0.0485,0.6076 -0.0273,0.64026 0.2161,0.33345 0.29899,-0.37686 0.80156,-0.28006 0.98157,0.18905 0.16383,0.42692 1.82482,0.22195 3.18616,-0.39318 z m -3.08595,-0.42615 c -0.30472,-0.36716 -0.007,-0.73302 0.51556,-0.63338 0.50696,0.0967 0.60149,0.93021 0.10551,0.93021 -0.2061,0 -0.48558,-0.13357 -0.62107,-0.29683 z m 2.02748,-0.0881 c -0.17769,-0.28751 0.0695,-0.57735 0.49248,-0.57735 0.24524,0 0.37354,0.1322 0.37354,0.3849 0,0.40819 -0.6442,0.55135 -0.86602,0.19245 z m 2.0502,-1.39464 c -0.35882,-0.35882 -0.27469,-1.1072 0.12447,-1.1072 0.40223,0 0.80829,0.35432 0.80829,0.70529 0,0.37853 -0.66822,0.66645 -0.93276,0.40191 z m -5.78288,-0.32093 c -0.32025,-0.20278 -0.15506,-0.74655 0.27717,-0.91241 0.42446,-0.16288 0.72881,0.19927 0.57493,0.68412 -0.1366,0.43038 -0.4151,0.505 -0.8521,0.22829 z m 10.17972,-31.6743 c 0.13177,-0.15877 0.35887,-0.28868 0.50468,-0.28868 0.14581,0 0.26511,-0.0866 0.26511,-0.19244 0,-0.10585 -0.12282,-0.19245 -0.27293,-0.19245 -0.15011,0 -0.3996,-0.0486 -0.55441,-0.10802 -0.18937,-0.0727 -0.34868,0.0848 -0.48685,0.48113 -0.16182,0.4642 -0.15128,0.58913 0.0497,0.58913 0.14031,0 0.36291,-0.1299 0.49468,-0.28867 z m 3.89679,-0.42223 c 0.55813,-0.23948 0.87814,-0.58981 1.41394,-1.54791 0.64206,-1.14812 0.67809,-1.29678 0.49437,-2.03973 -0.10899,-0.44074 -0.25924,-1.45087 -0.33389,-2.24472 -0.0746,-0.79385 -0.21589,-1.65987 -0.31387,-1.92449 -0.71356,-1.92699 -4.14101,-2.92288 -6.52695,-1.89647 -1.3684,0.58867 -2.26212,2.0111 -2.98098,4.74448 -0.53744,2.04358 -0.27328,3.16393 0.92999,3.94414 0.79508,0.51554 1.49611,0.67982 1.49611,0.35059 0,-0.0937 -0.2238,-0.31695 -0.49733,-0.49617 -0.47842,-0.31348 -0.48444,-0.3401 -0.15838,-0.70039 0.44449,-0.49116 0.66055,-0.39487 0.92188,0.41083 0.25172,0.77603 0.86014,1.00992 1.02155,0.3927 0.0998,-0.38162 0.20464,-0.39971 1.86274,-0.3215 0.96634,0.0456 1.82769,0.0901 1.9141,0.099 0.0864,0.009 0.12972,0.25424 0.0962,0.54532 -0.0578,0.50243 -0.11208,0.52923 -1.07159,0.52923 -1.07043,0 -1.18458,0.0866 -0.72273,0.54847 0.31648,0.31648 1.08902,0.19269 2.45481,-0.39335 z m 63.82244,23.6798 c -0.70052,-0.12957 -1.98652,-0.5105 -2.85778,-0.84649 -1.4392,-0.55501 -1.87725,-0.62675 -4.78847,-0.78419 -1.7624,-0.0953 -4.07038,-0.25812 -5.12884,-0.36179 -1.05847,-0.10367 -2.57832,-0.22812 -3.37745,-0.27656 -0.79912,-0.0485 -1.676,-0.17288 -1.94861,-0.27653 -0.58946,-0.22411 -4.00771,-3.03209 -4.00771,-3.2922 0,-0.0994 -0.38869,-0.65788 -0.86376,-1.24113 -1.06934,-1.31286 -2.41155,-3.4163 -2.83274,-4.4393 -0.17431,-0.42339 -0.41624,-1.85232 -0.53763,-3.17541 -0.25188,-2.7456 -0.54464,-3.61853 -2.17426,-6.48315 -1.16074,-2.04038 -1.58691,-3.34369 -1.41827,-4.33723 0.39601,-2.33297 0.98257,-4.19063 1.32322,-4.19063 0.0956,0 0.38319,-0.47345 0.63911,-1.05212 0.5633,-1.27373 1.52408,-2.37253 2.7782,-3.17729 0.51424,-0.32999 0.97723,-0.71007 1.02886,-0.84462 0.0516,-0.13455 0.0218,-0.62842 -0.0663,-1.09749 -0.0881,-0.46907 -0.11269,-1.06936 -0.0546,-1.33398 0.23761,-1.08254 1.11719,-3.35596 1.53878,-3.97721 0.24783,-0.36519 0.62357,-1.00305 0.83499,-1.41746 0.74069,-1.45188 2.7182,-3.00949 4.81315,-3.79114 0.57938,-0.21617 2.09727,-0.54103 3.37307,-0.72191 2.13315,-0.30242 2.37874,-0.30417 3.05458,-0.0218 0.4042,0.16889 0.79285,0.30707 0.86366,0.30707 0.0708,0 0.36892,-0.47434 0.66248,-1.0541 0.72266,-1.42719 1.73794,-2.248 4.35789,-3.52314 2.14363,-1.04331 2.26456,-1.07752 3.84898,-1.08858 1.33824,-0.009 1.801,0.0699 2.54385,0.43581 1.2879,0.63431 5.14126,3.83862 5.80546,4.82758 l 0.55813,0.83103 0.98296,-0.12487 c 3.70587,-0.47079 5.65285,-0.27423 8.05004,0.81271 1.00678,0.45649 1.44711,0.80455 2.14863,1.69835 1.16988,1.49056 1.45418,2.41458 1.59122,5.17183 0.10555,2.12372 0.0763,2.42337 -0.36413,3.72711 l -0.4789,1.41772 0.9462,1.79734 c 1.15891,2.20136 2.02365,4.52607 2.27233,6.1088 0.10286,0.65464 0.27234,1.60182 0.37661,2.10485 0.25348,1.22277 0.11364,2.15608 -0.94424,6.30223 -0.0945,0.37046 -0.25918,1.2107 -0.36592,1.86719 -0.10673,0.65649 -0.33737,1.49563 -0.51254,1.86477 -0.40211,0.84738 -3.55573,3.90458 -4.38527,4.25118 -0.82513,0.34476 -1.13738,0.7234 -1.82801,2.21664 -0.85601,1.85086 -3.25329,4.34934 -4.86969,5.07527 -0.6769,0.30399 -1.44722,0.67722 -1.71184,0.82938 -1.3644,0.78459 -2.32564,1.09237 -3.84612,1.23152 -3.06576,0.28056 -3.75481,0.28768 -5.02928,0.0519 z m 0.2152,-2.34641 c 0,-0.47331 -0.10591,-0.57862 -0.78722,-0.78275 -0.70099,-0.21002 -0.81627,-0.19754 -1.05235,0.11388 -0.39909,0.52645 -0.34789,0.60544 0.54054,0.8338 0.44985,0.11563 0.90451,0.24203 1.01036,0.2809 0.10584,0.0389 0.2141,0.0775 0.24056,0.0859 0.0265,0.008 0.0481,-0.23091 0.0481,-0.53169 z m 2.97334,0.37471 c -0.285,-0.2684 -1.43375,-0.46394 -1.43375,-0.24406 0,0.25003 0.34573,0.38222 1.04885,0.40104 0.34136,0.009 0.49483,-0.0535 0.3849,-0.15698 z m -6.23751,-0.96858 c -0.10919,-0.20403 -0.14085,-0.52878 -0.0704,-0.72168 0.12242,-0.335 0.11092,-0.33563 -0.25641,-0.0139 -0.43747,0.38312 -0.88573,0.42638 -1.42538,0.13757 -0.2812,-0.15049 -0.37225,-0.13669 -0.37225,0.0565 0,0.25942 1.35069,0.87246 1.97938,0.89839 0.2806,0.0116 0.30717,-0.0538 0.14502,-0.35678 z m -3.76021,-1.16864 c 0.0686,-0.11106 -0.10968,-0.1912 -0.42165,-0.1895 -0.41975,0.002 -0.47607,0.0446 -0.25192,0.1895 0.36975,0.23896 0.52589,0.23896 0.67357,0 z m 15.9595,-0.10997 c 0.444,-0.44399 0.36933,-0.78002 -0.0825,-0.37115 -0.2117,0.19158 -0.3849,0.42151 -0.3849,0.51095 0,0.23837 0.12728,0.2003 0.46737,-0.1398 z m -23.86386,-0.0599 c 0.0936,-0.15153 -0.39468,-0.40274 -2.53083,-1.30192 -0.59944,-0.25233 -0.63,-0.24233 -0.90906,0.29731 -0.22763,0.44018 -0.23839,0.60022 -0.0508,0.75588 0.39603,0.32868 3.31286,0.53652 3.49072,0.24873 z m 9.97318,-0.098 c 0.49627,-0.37672 0.41511,-0.5019 -0.32542,-0.5019 -0.72085,0 -1.08474,0.32783 -0.66148,0.59592 0.36138,0.22889 0.59024,0.20709 0.9869,-0.094 z m 9.97141,0.0753 c 1.06841,-0.2968 2.52226,-1.49987 4.36945,-3.61572 1.73854,-1.99141 3.50877,-4.87338 3.50877,-5.71235 0,-0.68406 0.95975,-1.29312 1.97445,-1.25299 2.35679,0.0932 2.45693,0.0647 3.46963,-0.98593 0.6495,-0.67383 1.27265,-1.6563 1.98357,-3.12729 0.96168,-1.98985 1.03669,-2.24618 1.03833,-3.54816 0.002,-1.94541 -0.46869,-4.06024 -1.35951,-6.10247 -0.41561,-0.95281 -0.75566,-1.79322 -0.75566,-1.86758 0,-0.0744 -0.43301,-0.71447 -0.96224,-1.42246 -0.52924,-0.708 -0.96225,-1.3729 -0.96225,-1.47756 0,-0.10467 0.16555,-0.46033 0.36788,-0.79037 0.70323,-1.14707 1.02855,-2.73916 0.94427,-4.62118 -0.0663,-1.48154 -0.17752,-1.9665 -0.71944,-3.13815 -1.06301,-2.29826 -2.28104,-2.85767 -6.17372,-2.83542 -1.54659,0.009 -2.5534,0.11641 -3.3428,0.35715 -1.10204,0.33607 -1.14201,0.33534 -1.63582,-0.03 -0.27839,-0.20595 -0.62761,-0.62647 -0.77603,-0.93449 -0.38906,-0.80743 -0.97024,-1.46153 -2.76181,-3.10834 -1.91356,-1.75894 -2.85341,-2.2188 -4.56682,-2.23449 -1.2244,-0.0112 -1.94729,0.23825 -4.62201,1.59498 -0.15877,0.0805 -0.72438,0.65781 -1.2569,1.28283 -0.73045,0.85733 -1.03352,1.4086 -1.23412,2.2448 -0.14625,0.60962 -0.37618,1.19992 -0.51096,1.31178 -0.32215,0.26736 -0.9699,-0.0708 -1.13561,-0.59293 -0.10941,-0.34471 -0.29096,-0.3851 -1.73114,-0.3851 -2.01484,0 -4.52797,0.33861 -4.90841,0.66134 -0.15877,0.13469 -0.73972,0.48579 -1.29101,0.78024 -2.35823,1.25954 -4.76678,5.55568 -4.40014,7.84853 0.0666,0.4167 0.24796,1.00286 0.40295,1.30259 0.155,0.29972 0.22979,0.68052 0.1662,0.84622 -0.0636,0.1657 -0.73414,0.62414 -1.49011,1.01875 -1.49485,0.78029 -2.99303,2.1597 -3.39214,3.12323 -0.20132,0.48603 -0.20762,0.92333 -0.0313,2.17025 0.12146,0.85887 0.34475,1.7507 0.49621,1.98186 0.15146,0.23115 0.41321,0.8944 0.58167,1.47389 0.34536,1.18799 0.60663,1.46765 3.08796,3.3053 0.95263,0.70551 1.8403,1.37122 1.97261,1.47937 0.33781,0.27614 0.29977,1.23989 -0.0608,1.53911 -0.29738,0.24681 -0.29013,1.37244 0.0155,2.40071 0.0738,0.24827 -0.0272,0.55569 -0.27728,0.84403 -0.49304,0.56848 -0.41306,0.95671 0.63248,3.07002 1.52302,3.07841 3.52045,4.71896 6.72363,5.52232 1.11845,0.2805 1.579,0.298 3.1754,0.12064 1.02697,-0.1141 2.68994,-0.43393 3.69548,-0.71073 2.06394,-0.56816 2.76927,-0.49332 3.83971,0.4074 0.62936,0.52957 3.08306,1.54828 4.33937,1.80159 1.10792,0.22339 2.77742,0.2256 3.57248,0.005 z m -14.26664,-9.30879 c -1.12358,-0.24103 -3.45287,-1.71501 -3.83319,-2.42565 -0.25156,-0.47004 -0.25131,-1.15943 4.1e-4,-1.15943 0.10747,0 0.77863,0.42111 1.49148,0.9358 0.71284,0.51469 1.77239,1.08906 2.35455,1.27638 1.29661,0.41721 1.57473,0.62546 1.50076,1.12376 -0.0743,0.50026 -0.22654,0.52532 -1.51401,0.24914 z m 6.87037,-0.0932 c -0.36957,-0.40838 -0.23652,-0.97913 0.23596,-1.01224 0.98794,-0.0692 1.56711,0.22455 1.56711,0.79493 0,0.64203 -1.27918,0.79619 -1.80307,0.21731 z m 5.07975,-1.94513 c -0.23886,-0.15106 -0.20949,-0.25829 0.1861,-0.67938 0.52479,-0.55861 1.40068,-0.60113 1.50075,-0.0729 0.13183,0.69595 -0.98695,1.19485 -1.68685,0.75224 z m 4.4641,-2.61617 c -0.5321,-0.37269 -0.5553,-0.98542 -0.0428,-1.13081 0.21169,-0.0601 0.55866,-0.15851 0.77105,-0.21878 0.49643,-0.14089 0.80649,0.58548 0.51914,1.21617 -0.23099,0.50699 -0.65004,0.55181 -1.24737,0.13342 z m -23.69162,-2.60742 c -0.70345,-0.75507 -1.79945,-3.05819 -1.70083,-3.5741 0.0507,-0.26503 0.004,-0.76793 -0.10298,-1.11755 -0.1073,-0.34962 -0.13707,-0.86686 -0.0661,-1.14941 0.10496,-0.41819 0.22387,-0.50254 0.63935,-0.4535 0.4591,0.0542 0.54443,0.19567 0.84882,1.40739 0.18613,0.74093 0.34504,1.69355 0.35313,2.11694 0.008,0.42339 0.18601,1.14731 0.39538,1.60872 0.20937,0.46141 0.38067,0.95426 0.38067,1.09522 0,0.45817 -0.35312,0.48949 -0.74739,0.0663 z m 8.75339,-2.03087 c -1.30986,-0.3027 -2.20369,-0.8057 -2.89798,-1.63082 -0.41888,-0.49781 -0.48843,-0.76615 -0.48351,-1.8657 0.007,-1.63181 0.69495,-3.81358 1.35803,-4.30863 1.0537,-0.7867 3.08173,-0.66949 4.4837,0.25913 0.72954,0.48323 0.936,0.75775 1.18739,1.57886 0.46885,1.53136 0.58281,3.77909 0.22653,4.46806 -0.71322,1.37921 -2.08912,1.91161 -3.87416,1.4991 z m 1.5661,-2.03839 c 0.40609,-0.43779 0.49266,-0.89969 0.45563,-2.431 -0.017,-0.70428 -0.13369,-0.95014 -0.70767,-1.49148 -0.37894,-0.35739 -0.89032,-0.64818 -1.13989,-0.64818 -0.49535,0 -1.63691,1.01873 -1.63691,1.46078 0,0.15207 -0.099,0.43506 -0.22007,0.62887 -0.16804,0.26907 -0.15666,0.55286 0.0481,1.2002 0.22218,0.70239 0.41546,0.92207 1.12687,1.28081 0.47227,0.23816 1.04174,0.43301 1.26548,0.43301 0.22374,0 0.58754,-0.19485 0.80845,-0.43301 z m 15.4459,1.68351 c -0.31004,-0.37357 0.004,-4.54363 0.37566,-4.99171 0.39876,-0.48047 0.93367,-0.35488 1.27158,0.29856 0.26273,0.50805 0.27755,0.79236 0.0978,1.87638 -0.4442,2.67955 -0.59063,3.10586 -1.06681,3.10586 -0.24109,0 -0.54632,-0.13009 -0.67828,-0.28909 z m -8.78212,-0.66403 c -1.26426,-0.30157 -2.31171,-1.37236 -2.84744,-2.91089 -0.43863,-1.25967 -0.37625,-1.63353 0.41976,-2.51566 0.85722,-0.94998 1.64795,-1.31828 2.83029,-1.31828 1.23648,0 2.95195,1.30341 3.55234,2.69906 1.17927,2.74129 -0.82562,4.79222 -3.95495,4.04577 z m 2.25945,-2.18987 c 0.31134,-0.6833 -0.20921,-1.73216 -1.15641,-2.3301 -0.905,-0.5713 -1.48115,-0.62213 -1.97598,-0.17432 -0.47212,0.42727 -0.44336,1.02851 0.0868,1.81528 0.53679,0.79654 1.16064,1.13128 2.11529,1.13501 0.57497,0.002 0.7683,-0.0904 0.93025,-0.44587 z m -20.50935,-2.50556 c -0.29241,-0.21381 -0.33399,-0.41729 -0.23413,-1.14582 0.1303,-0.95064 1.02389,-2.75323 1.44761,-2.92015 0.71328,-0.28101 0.73927,0.59875 0.0823,2.78636 -0.47121,1.56906 -0.65361,1.74919 -1.29579,1.27961 z m 25.65016,-5.27292 c -0.94729,-1.01905 -2.68562,-3.75522 -2.50224,-3.93859 0.0984,-0.0984 0.47087,-0.15102 0.82763,-0.11685 0.53528,0.0513 0.76072,0.23031 1.2898,1.02437 0.35264,0.52924 0.86429,1.40687 1.13701,1.9503 0.74437,1.48325 0.26381,2.17374 -0.7522,1.08077 z m -21.28827,-2.20354 c -0.12701,-0.12701 -0.23094,-0.42847 -0.23094,-0.6699 0,-0.60647 0.90979,-0.84915 1.28087,-0.34167 0.33082,0.45243 0.32531,0.57109 -0.0437,0.94009 -0.36162,0.36162 -0.69259,0.38513 -1.00624,0.0715 z m 5.57331,-3.09982 c -0.46466,-0.55988 1.17323,-1.46226 2.19062,-1.20691 0.59425,0.14914 0.81419,0.62542 0.45109,0.97681 -0.42504,0.41131 -2.35201,0.57916 -2.64171,0.2301 z m 7.7419,-0.58411 c -0.61601,-0.52988 -0.53165,-0.98069 0.21878,-1.16904 0.73706,-0.18499 1.50331,0.34024 1.32594,0.90886 -0.25659,0.82254 -0.78706,0.91189 -1.54472,0.26018 z m 10.69534,33.88877 0.45022,-0.62546 -0.60648,0.56524 c -0.64276,0.59907 -0.69963,0.68568 -0.45021,0.68568 0.0859,0 0.35885,-0.28145 0.60647,-0.62546 z m -30.12691,-0.26115 c 0.42686,-0.1638 0.37886,-0.51883 -0.12994,-0.96123 -0.2389,-0.20772 -0.66149,-0.66789 -0.9391,-1.02261 -0.5539,-0.70775 -0.93594,-0.6614 -0.93594,0.11353 0,0.33324 0.2639,0.73323 0.81783,1.23956 0.4498,0.41116 0.83242,0.74757 0.85028,0.74757 0.0179,0 0.16944,-0.0526 0.33687,-0.11682 z m 32.82826,-3.16617 c 0,-0.0996 -0.0866,-0.18109 -0.19245,-0.18109 -0.10585,0 -0.19245,0.13501 -0.19245,0.30003 0,0.16502 0.0866,0.24651 0.19245,0.18109 0.10585,-0.0654 0.19245,-0.20043 0.19245,-0.30003 z m -34.89209,-0.0581 c 0.036,-0.036 -0.24055,-0.57358 -0.61454,-1.19465 -0.61102,-1.01471 -0.74763,-1.13156 -1.34719,-1.15238 l -0.66722,-0.0232 0.71844,1.33042 c 0.68045,1.26005 0.74824,1.32446 1.28176,1.21782 0.30982,-0.0619 0.59276,-0.14205 0.62875,-0.17804 z m 35.98627,-1.11879 c 0.45007,-0.42282 0.59547,-0.9287 0.26693,-0.9287 -0.0982,0 -0.35797,0.22818 -0.57735,0.50708 -0.67629,0.85977 -0.46355,1.14872 0.31042,0.42162 z m 1.6001,-2.38342 c 0,-0.15253 -0.17625,-0.27732 -0.39167,-0.27732 -0.33383,0 -0.36082,0.0576 -0.18279,0.39029 0.22282,0.41634 0.57446,0.34719 0.57446,-0.11297 z m -39.14316,-0.39037 c -0.0645,-0.16802 -0.17141,-0.64433 -0.23763,-1.05847 -0.11242,-0.703 -0.16348,-0.75297 -0.76938,-0.75297 -0.62215,0 -0.64885,0.0298 -0.64603,0.72169 0.004,0.92741 0.15647,1.14889 0.8637,1.25282 0.3172,0.0466 0.65094,0.0977 0.74165,0.11359 0.0907,0.0159 0.11217,-0.10863 0.0477,-0.27666 z m -1.07864,-3.89099 c 0,-0.19113 -0.21651,-0.64096 -0.48112,-0.99963 -0.26462,-0.35867 -0.48305,-0.78685 -0.4854,-0.95152 -0.006,-0.3973 -0.70255,-1.29254 -0.87325,-1.12183 -0.0737,0.0737 0.0395,0.50545 0.2516,0.95937 0.21212,0.45392 0.44991,1.12842 0.52843,1.49888 0.18708,0.88268 0.24382,0.96224 0.6862,0.96224 0.23184,0 0.37354,-0.13182 0.37354,-0.34751 z m -2.65733,-4.5893 c -0.10019,-0.19554 -0.41467,-1.1133 -0.69884,-2.03946 -0.52549,-1.71263 -0.8777,-2.15421 -0.8777,-1.1004 0,0.65837 0.36686,1.62072 1.08554,2.84755 0.46537,0.79443 0.87245,1.03677 0.491,0.29231 z M 176.89585,176.1834 c -0.37047,-0.14242 -1.23104,-0.36346 -1.9124,-0.49121 -0.68135,-0.12775 -1.54737,-0.39631 -1.92449,-0.59679 -0.95603,-0.50826 -6.61671,-2.29965 -7.2695,-2.30052 -0.29522,-4e-4 -0.79657,-0.15698 -1.11411,-0.34798 -0.31754,-0.19099 -1.27016,-0.62485 -2.11694,-0.96414 -0.84677,-0.33928 -1.7994,-0.79409 -2.11694,-1.01067 -0.31754,-0.21659 -1.01035,-0.6041 -1.53959,-0.86114 -1.06743,-0.51843 -1.66449,-0.88973 -5.59187,-3.47743 -3.07417,-2.02553 -5.60063,-4.29463 -7.52337,-6.75697 -1.62625,-2.08265 -3.12226,-4.29053 -3.75186,-5.53716 -1.50462,-2.97921 -2.2905,-4.7862 -2.67835,-6.15836 -0.23934,-0.84678 -0.59439,-1.71838 -0.78898,-1.93689 -0.1946,-0.21852 -0.35381,-0.59213 -0.35381,-0.83024 0,-0.23812 -0.22806,-0.92535 -0.5068,-1.52719 -0.72381,-1.56283 -0.91136,-2.40341 -1.31766,-5.90547 -0.0614,-0.52923 -0.23763,-2.00147 -0.39163,-3.27163 -0.154,-1.27016 -0.27883,-2.48259 -0.27741,-2.69428 0.001,-0.21169 -0.0943,-0.95737 -0.21269,-1.65705 -0.17424,-1.02968 -0.15859,-1.57267 0.0821,-2.84885 0.19582,-1.03823 0.23799,-1.7329 0.12349,-2.03407 -0.26371,-0.6936 0.24298,-3.21899 0.77429,-3.85918 0.0953,-0.11485 0.21262,-0.69276 0.2607,-1.28426 0.0481,-0.5915 0.3163,-1.62549 0.59606,-2.29775 0.47106,-1.13198 0.91918,-2.41991 1.48996,-4.28225 0.19874,-0.64842 0.64259,-1.24381 2.08714,-2.79973 0.16607,-0.17888 0.44749,-0.68898 0.62538,-1.13357 0.36357,-0.90866 0.61654,-1.32394 3.13546,-5.14727 0.98217,-1.4908 2.11528,-2.98793 2.51802,-3.32695 0.40273,-0.33903 1.38176,-1.183789 2.17561,-1.87724 2.37167,-2.071723 6.06175,-4.36247 8.94887,-5.555329 4.5624,-1.885031 12.57804,-3.766045 19.82223,-4.651642 3.7312,-0.456137 8.32765,-0.455926 10.19978,4.68e-4 0.74093,0.180626 1.81741,0.420329 2.39218,0.532674 1.48491,0.290239 4.3572,1.851365 6.98282,3.795239 1.23991,0.91797 2.87521,2.102046 3.634,2.631281 1.79064,1.248926 4.43324,3.743938 6.29531,5.943739 0.81409,0.96174 2.07348,2.39939 2.79865,3.19478 3.19579,3.50527 5.53513,6.80288 7.28441,10.26831 0.54276,1.07525 1.1358,2.12819 1.31786,2.33989 0.18206,0.21169 0.39411,0.6014 0.47122,0.86602 0.0771,0.26461 0.38108,1.13063 0.67548,1.92448 0.50826,1.37052 0.8785,2.57815 1.33441,4.35243 0.11194,0.43567 0.20388,1.30169 0.2043,1.92449 4.1e-4,0.6228 0.26978,2.51799 0.59858,4.21154 0.32881,1.69355 0.66971,3.46889 0.75756,3.9452 0.23538,1.27611 0.18776,6.69488 -0.0956,10.87336 -0.32215,4.75127 -0.68562,6.0919 -2.53052,9.33377 -1.57492,2.76744 -7.05787,9.37999 -8.3152,10.0283 -0.52408,0.27023 -1.97579,1.43931 -4.27195,3.44027 -2.70926,2.36094 -4.16975,3.27999 -6.42951,4.04597 -3.77452,1.27941 -4.02164,1.35621 -6.46456,2.00908 -5.29777,1.41582 -16.22259,2.47986 -18.09019,1.76192 z m 5.96591,-1.94942 c 3.32351,-0.40707 6.37117,-0.8479 8.08285,-1.16916 0.79385,-0.14899 1.96298,-0.36692 2.59806,-0.48429 1.364,-0.25208 8.26008,-2.5088 9.32227,-3.05069 0.57352,-0.29259 0.7607,-0.51692 0.84188,-1.00896 0.0574,-0.348 0.16398,-0.87088 0.23679,-1.16196 0.19092,-0.76319 -0.1572,-0.68845 -1.89,0.40574 -0.81436,0.51423 -1.97994,1.08906 -2.59019,1.27738 -0.61024,0.18833 -1.22239,0.43154 -1.36033,0.54046 -0.13794,0.10893 -0.61425,0.26163 -1.05847,0.33934 -0.44422,0.0777 -1.28398,0.2735 -1.86613,0.43508 -1.22409,0.33976 -2.9566,0.61449 -5.67724,0.90027 -1.05847,0.11118 -2.4916,0.29118 -3.18474,0.4 -1.21447,0.19067 -3.28656,0.0964 -8.55464,-0.38928 -1.94731,-0.17952 -2.16161,-0.22416 -4.715,-0.98225 -1.00554,-0.29854 -2.13137,-0.60205 -2.50183,-0.67447 -0.37047,-0.0724 -0.76018,-0.19768 -0.86602,-0.27836 -0.10585,-0.0807 -0.92242,-0.46536 -1.81461,-0.85485 -0.89219,-0.38948 -2.53763,-1.14595 -3.65653,-1.68104 -1.1189,-0.53508 -2.55398,-1.21045 -3.18906,-1.50082 -4.90285,-2.24163 -6.08845,-3.07844 -9.42999,-6.65582 -2.32047,-2.48423 -2.59247,-2.82046 -3.88394,-4.80091 -1.55557,-2.38543 -3.2526,-6.50349 -3.06624,-7.4406 0.0637,-0.32058 -0.003,-0.59962 -0.1786,-0.74525 -0.15427,-0.12804 -0.2805,-0.35815 -0.2805,-0.51135 0,-0.1532 -0.2443,-0.64055 -0.5429,-1.08301 -1.73667,-2.57343 -2.88916,-6.6919 -3.88719,-13.89099 -0.088,-0.63508 -0.24608,-1.4578 -0.3512,-1.82827 -0.10511,-0.37046 -0.24446,-1.62619 -0.30966,-2.7905 -0.16433,-2.93472 -0.28293,-3.65204 -0.55821,-3.37643 -0.35219,0.35261 -0.26143,8.06701 0.12915,10.97815 0.17752,1.32309 0.3621,3.10201 0.41018,3.95316 0.0481,0.85115 0.13867,1.68109 0.2013,1.84431 0.0626,0.16323 0.27469,1.28547 0.47123,2.49388 0.39868,2.45119 1.16372,5.35766 1.79407,6.81589 0.76161,1.76189 3.1936,6.43901 3.74009,7.19285 3.5106,4.8425 5.83474,7.07309 10.13716,9.72912 0.33087,0.20425 1.2511,0.8043 2.04495,1.33344 3.16491,2.10956 6.98582,3.83038 10.77713,4.8537 1.05136,0.28377 2.16332,0.67713 5.48479,1.94024 1.13326,0.43096 2.43063,0.7482 3.75275,0.91765 2.69802,0.34578 2.63651,0.34568 5.38857,0.009 z m 5.57758,-4.81212 c 4.56795,-0.45809 8.58328,-1.36238 10.57729,-2.3821 0.37642,-0.1925 0.98751,-0.48044 1.35797,-0.63987 2.09503,-0.90158 7.70885,-5.91379 12.1438,-10.84239 1.45825,-1.62057 3.23456,-5.20837 4.13783,-8.35759 0.13662,-0.47631 0.50123,-1.55884 0.81024,-2.40561 1.28667,-3.52578 1.59953,-8.93292 0.92423,-15.97325 -0.18275,-1.90525 -0.40944,-4.50642 -0.50376,-5.78039 -0.18407,-2.48619 -0.28225,-3.00577 -1.01687,-5.38164 -0.45188,-1.46142 -2.99694,-5.94615 -3.92215,-6.91132 -0.19405,-0.20244 -0.78583,-0.90821 -1.31506,-1.5684 -2.6255,-3.27512 -7.92618,-9.17481 -9.23989,-10.284044 -2.196,-1.8542 -4.84868,-3.84185 -7.27403,-5.450418 -2.55156,-1.692276 -3.18488,-2.029423 -4.463,-2.375865 -2.96488,-0.803647 -4.2667,-0.983263 -6.92816,-0.955896 -3.03687,0.03123 -9.15555,0.746097 -11.06581,1.292862 -0.688,0.196925 -1.82419,0.446906 -2.52486,0.555512 -0.70066,0.108607 -1.60998,0.315168 -2.02071,0.459024 -0.41072,0.143856 -1.45413,0.364202 -2.31868,0.489657 -0.99355,0.144175 -2.33889,0.542323 -3.65652,1.082134 -1.14654,0.469719 -2.18097,0.855729 -2.29872,0.8578 -1.36271,0.02397 -7.73381,3.975908 -8.05839,4.998556 -0.0572,0.180138 -0.75743,0.748178 -1.55612,1.262298 -1.6212,1.04357 -3.37903,2.81304 -4.21808,4.246 -0.30518,0.52119 -0.93368,1.51053 -1.39667,2.19853 -0.72595,1.07875 -1.23663,2.0548 -2.66834,5.0999 -0.3489,0.74207 -0.7888,2.87365 -1.13548,5.50215 -0.34656,2.62759 -0.37229,3.89854 -0.12042,5.94855 0.11054,0.8997 0.3304,2.72246 0.48858,4.05058 0.15819,1.32813 0.36634,2.62716 0.46256,2.88674 0.0962,0.25958 0.23521,1.07817 0.30885,1.8191 0.0736,0.74093 0.30254,1.99132 0.50866,2.77864 0.20613,0.78733 0.37478,1.63135 0.37478,1.87561 0,0.70738 0.7426,2.68648 1.82807,4.87197 0.552,1.11139 1.32998,3.01663 1.72885,4.23387 0.39886,1.21724 1.14736,2.96943 1.66332,3.89375 0.51597,0.92433 0.93812,1.72451 0.93812,1.77818 0,0.0537 0.3925,0.70994 0.87222,1.45836 0.52107,0.81291 2.05131,2.54766 3.80087,4.30882 3.12306,3.14378 4.02239,3.78963 6.98412,5.01564 0.89763,0.37158 2.73391,1.23345 4.08063,1.91528 2.2264,1.12721 4.19996,2.01532 6.00888,2.70401 1.46522,0.55785 4.09586,1.10244 6.92815,1.43428 1.11139,0.13021 2.36712,0.30595 2.79051,0.39053 1.28454,0.25662 4.87846,0.21181 7.98319,-0.0995 z m -8.94543,-2.72821 c -3.17043,-0.26965 -5.94843,-0.96454 -7.33349,-1.8344 -0.43035,-0.27027 -1.19997,-0.52301 -1.80783,-0.59368 -1.61548,-0.18782 -3.75034,-0.79785 -6.07475,-1.73584 -2.99624,-1.2091 -3.54769,-1.4997 -3.54769,-1.86954 0,-0.35555 -1.5864,-1.91335 -1.94848,-1.91335 -0.12378,0 -0.58037,-0.2833 -1.01466,-0.62955 -0.43429,-0.34625 -1.16782,-0.88466 -1.63006,-1.19648 -0.46225,-0.31182 -0.98186,-0.77165 -1.1547,-1.02184 -0.48643,-0.70415 -3.105,-4.28493 -3.71445,-5.07936 -0.29975,-0.39072 -0.54499,-0.87136 -0.54499,-1.06809 0,-0.19673 -0.0779,-0.43997 -0.17318,-0.54052 -0.0953,-0.10056 -0.44629,-0.83064 -0.78009,-1.62241 -0.33379,-0.79177 -0.73386,-1.57987 -0.88904,-1.75135 -0.15519,-0.17147 -0.40541,-0.95259 -0.55607,-1.73582 -0.30109,-1.56536 -0.69939,-2.51777 -1.36012,-3.25232 -0.4199,-0.46681 -0.87481,-1.80104 -1.14523,-3.35891 -0.0726,-0.41846 -0.31199,-1.11128 -0.53188,-1.53959 -0.27271,-0.53119 -0.41503,-1.216 -0.44771,-2.15425 -0.0264,-0.75653 -0.15782,-1.57925 -0.29215,-1.82826 -0.14965,-0.27741 -0.29319,-1.64528 -0.37064,-3.53194 -0.0695,-1.69355 -0.22099,-3.33899 -0.3366,-3.65653 -0.95359,-2.61929 -1.06166,-4.08461 -0.3923,-5.31914 0.72168,-1.33102 1.56767,-2.45243 1.94815,-2.58238 0.30441,-0.10397 0.96289,-1.31732 2.135,-3.93408 0.16594,-0.37046 0.5607,-1.10658 0.87723,-1.63582 0.83219,-1.39137 1.73728,-3.13513 1.73728,-3.34707 0,-0.36882 3.59379,-3.95323 4.65667,-4.64451 0.603,-0.39218 1.84739,-0.9522 2.76531,-1.24449 1.40121,-0.44617 1.81193,-0.67681 2.56017,-1.43762 0.59649,-0.60653 1.30488,-1.072275 2.14213,-1.408401 0.688,-0.276209 2.76645,-1.134812 4.61877,-1.908004 l 3.36785,-1.405806 3.75276,-0.02604 c 2.06401,-0.01432 4.26661,-0.122572 4.89467,-0.240561 0.62806,-0.117989 1.79719,-0.214482 2.59806,-0.214429 1.64116,1.1e-4 2.43331,0.253658 5.07242,1.623564 1.46935,0.762708 1.84669,0.878174 2.86984,0.878174 2.61271,0 6.80024,1.975749 8.81103,4.157203 0.42914,0.46556 0.93002,0.8478 1.11307,0.84942 0.5188,0.005 0.77469,0.241 1.09774,1.01415 0.22952,0.54933 0.40802,0.71494 0.77056,0.71494 1.46165,0 5.93074,5.88784 6.35431,8.37152 0.15573,0.91315 0.39739,1.25092 0.89496,1.25092 0.44006,0 0.74147,0.69863 0.74147,1.71862 0,0.4399 0.15337,0.92629 0.3849,1.22063 0.21169,0.26912 0.38489,0.55082 0.38489,0.626 0,0.0752 0.25981,0.43259 0.57735,0.79425 0.31754,0.36166 0.57735,0.83205 0.57735,1.04532 0,0.21327 0.12348,0.62656 0.27441,0.91842 0.15093,0.29186 0.37419,1.25939 0.49614,2.15006 0.12195,0.89067 0.27339,1.70298 0.33652,1.80513 0.0631,0.10216 0.13411,0.71082 0.15773,1.35258 0.0236,0.64176 0.26508,1.96792 0.53659,2.94703 0.72723,2.62243 0.90372,4.49643 0.84732,8.99694 -0.0494,3.94257 -0.0622,4.05761 -0.52262,4.70319 -0.42133,0.59077 -0.46637,0.82818 -0.41984,2.21316 0.0603,1.79618 -0.37499,4.18716 -1.01832,5.59282 -0.83147,1.81673 -5.42671,6.63788 -7.74825,8.12917 -0.44315,0.28467 -0.98605,0.83841 -1.20644,1.23053 -0.71924,1.27971 -2.01903,2.38325 -3.23322,2.74504 -1.23082,0.36673 -2.66092,0.47112 -3.17424,0.23168 -0.27339,-0.12752 -0.33679,-0.0655 -0.33679,0.32962 0,0.71076 -1.22311,1.6616 -3.01229,2.34173 -1.29175,0.49104 -1.78869,0.57645 -3.43475,0.59034 -1.1426,0.01 -2.35452,0.14094 -2.98295,0.32317 -1.02622,0.29758 -5.49542,0.54347 -7.21683,0.39706 z m 4.90744,-1.9797 c 0,-0.10519 -0.78407,-0.5751 -1.74238,-1.04426 -2.05926,-1.00814 -3.59853,-1.2591 -5.39037,-0.87885 -0.6284,0.13335 -1.14255,0.30554 -1.14255,0.38264 0,0.0771 0.58457,0.33599 1.29903,0.5753 0.71447,0.23932 1.60214,0.59358 1.9726,0.78726 0.53272,0.27851 1.12633,0.35393 2.83862,0.36065 1.31171,0.005 2.16505,-0.0669 2.16505,-0.18274 z m 8.56397,-1.36071 c 1.19722,-0.44789 2.02312,-0.9049 2.01743,-1.11635 -0.006,-0.20546 -1.98639,-0.99056 -2.49855,-0.99027 -0.26462,1.5e-4 -1.00073,-0.21378 -1.63581,-0.47539 -1.60671,-0.66187 -3.57473,-0.59343 -6.06214,0.2108 -1.74587,0.56448 -1.72916,0.74272 0.15866,1.6921 2.9611,1.48915 5.32102,1.68897 8.02041,0.67911 z m -22.53619,-1.11047 c 0.0546,-0.0883 -0.22176,-0.60389 -0.6141,-1.14569 -0.39235,-0.54179 -1.01647,-1.47076 -1.38693,-2.06438 -0.37046,-0.59361 -0.84277,-1.17307 -1.04958,-1.28769 -0.49754,-0.27575 -4.48187,-0.48365 -5.4788,-0.28588 -0.96559,0.19155 -0.99217,0.50125 -0.0976,1.13773 0.37787,0.26886 0.87583,0.76261 1.10658,1.09723 0.29826,0.43252 0.92023,0.8324 2.15158,1.38331 2.08694,0.9337 5.10692,1.58922 5.36888,1.16537 z m 5.74559,-1.02095 c 0.82063,-0.20243 2.29286,-0.44456 3.27163,-0.53806 0.97878,-0.0935 2.16931,-0.31454 2.64562,-0.4912 4.40157,-1.63253 6.51097,-1.96421 8.7524,-1.3762 1.37057,0.35955 1.17431,0.46013 3.77477,-1.93469 1.36529,-1.25732 2.24267,-1.88877 3.36786,-2.42381 0.83687,-0.39795 1.65149,-0.79456 1.81026,-0.88136 0.15877,-0.0868 0.40979,-0.53948 0.55782,-1.00594 0.94907,-2.99062 1.86753,-4.24721 4.50628,-6.16526 0.76061,-0.55287 1.65654,-1.25915 1.99094,-1.56951 l 0.608,-0.56429 -0.54115,-0.85331 c -0.87015,-1.37208 -1.24528,-3.24194 -1.24898,-6.22562 -0.004,-2.837 0.16665,-3.41677 1.46739,-4.99941 0.60101,-0.73125 0.71806,-1.49148 0.25689,-1.66844 -0.37005,-0.14201 -1.46985,-1.78952 -2.03657,-3.05082 -0.52903,-1.17739 -0.62402,-3.31795 -0.17206,-3.87688 0.50067,-0.61915 0.7679,-1.20147 0.59922,-1.30572 -0.0895,-0.0553 -0.12183,-0.31434 -0.0719,-0.57563 0.0766,-0.40079 -0.26846,-0.83029 -2.20698,-2.74698 -2.2731,-2.24751 -2.30667,-2.29363 -3.12423,-4.29263 -1.50161,-3.67157 -1.36738,-3.45354 -2.12957,-3.45912 -0.37338,-0.003 -0.89299,-0.15017 -1.1547,-0.32765 -1.118,-0.75819 -4.53545,-4.08565 -5.10405,-4.96965 l -0.61892,-0.96225 -1.89898,-0.0136 c -2.35205,-0.0169 -2.72854,-0.12129 -4.36905,-1.2113 l -1.31538,-0.87398 -0.84288,0.44715 c -0.7422,0.39373 -0.99643,0.43071 -2.12808,0.30952 -0.70686,-0.0757 -2.09984,-0.43253 -3.09551,-0.79295 -0.99568,-0.36042 -2.04965,-0.6553 -2.34216,-0.6553 -0.29251,0 -1.11038,0.34893 -1.8175,0.77541 -1.06974,0.6452 -1.71974,0.86423 -3.87046,1.30422 -2.83507,0.58 -3.04667,0.69748 -4.0535,2.25046 -0.85846,1.32415 -3.16362,3.49001 -4.20452,3.95045 -0.61607,0.27252 -1.22288,0.37077 -2.13472,0.34564 -0.70069,-0.0193 -1.36547,0.0564 -1.4773,0.16822 -0.11182,0.11183 -0.29096,0.88514 -0.39809,1.71848 -0.20853,1.62219 -0.56241,2.34056 -1.74944,3.55131 -0.58341,0.59507 -0.95913,0.75975 -2.75597,1.20801 -1.14426,0.28545 -2.11052,0.54905 -2.14724,0.58577 -0.0367,0.0367 0.1181,0.38009 0.34405,0.76304 0.28715,0.48669 0.4401,1.14567 0.50814,2.1893 0.0916,1.40577 0.0512,1.6105 -0.69166,3.50287 -0.43395,1.10541 -0.789,2.25446 -0.789,2.55344 0,0.29899 0.42883,1.39815 0.95295,2.44259 0.52413,1.04444 1.18766,2.77425 1.47453,3.84401 0.46796,1.74513 0.49179,1.9798 0.23185,2.28329 -0.15934,0.18604 -0.40031,0.98053 -0.53548,1.76553 -0.13517,0.785 -0.36522,1.71319 -0.51123,2.06264 -0.44332,1.06102 -0.34594,1.335 0.70418,1.98115 1.37114,0.84367 4.01409,3.4434 4.76339,4.6855 0.63158,1.04695 1.12486,2.246 2.19225,5.32886 0.31023,0.89601 0.64569,1.72747 0.74545,1.84768 0.0998,0.12021 0.23747,0.62766 0.306,1.12766 0.17469,1.2745 0.45416,1.49689 1.67404,1.33217 0.5458,-0.0737 1.90169,-0.14056 3.01308,-0.14858 2.83369,-0.0204 3.44819,0.29659 4.92694,2.54192 0.60318,0.91587 1.53375,2.12734 2.06794,2.69217 1.10099,1.16413 0.98113,1.15216 4.02337,0.40172 z m 7.66575,-17.88734 c -1.40898,-0.27652 -2.25333,-0.97906 -2.98596,-2.48444 -1.11861,-2.2985 -1.09714,-3.97042 0.0653,-5.08408 0.34911,-0.33447 0.51673,-0.65877 0.45752,-0.88519 -0.1294,-0.49482 1.09939,-0.81557 3.22818,-0.84265 1.48738,-0.0189 1.72431,0.0297 2.43783,0.50049 1.16749,0.77029 2.07204,2.67992 2.01027,4.24398 -0.025,0.63363 -0.14366,1.33616 -0.26363,1.56117 -0.73837,1.38479 -2.87685,3.22192 -3.69991,3.17853 -0.22001,-0.0116 -0.78231,-0.0961 -1.24957,-0.18781 z m 2.16489,-2.45026 c 0.4059,-0.38978 0.90863,-1.03935 1.11718,-1.44349 0.32868,-0.6369 0.34852,-0.82918 0.14893,-1.44336 -0.33377,-1.02712 -1.24265,-2.09309 -1.99688,-2.34201 -0.55979,-0.18475 -0.7749,-0.15562 -1.48559,0.20119 -1.82212,0.9148 -2.16562,1.71466 -1.52236,3.54487 0.85728,2.43911 2.19175,2.96837 3.73872,1.4828 z m -18.7551,-0.91373 c -1.27756,-0.72674 -1.79974,-1.72764 -1.80065,-3.45149 -0.001,-2.33648 1.21305,-4.17641 3.10019,-4.69747 2.04096,-0.56354 4.30462,1.74473 4.30462,4.38943 0,1.33748 -0.34316,2.16775 -1.39671,3.3793 -0.63687,0.73239 -0.7139,0.76427 -1.9904,0.82395 -1.14684,0.0536 -1.44911,-0.007 -2.21705,-0.44372 z m 3.16305,-1.99008 c 0.8056,-0.86125 0.87413,-1.00917 0.78014,-1.68392 -0.16266,-1.16771 -0.41697,-1.67083 -1.13356,-2.24261 -0.53579,-0.42752 -0.74101,-0.49313 -1.04072,-0.33274 -0.20532,0.10989 -0.54268,0.1998 -0.74967,0.1998 -0.47089,0 -1.18854,1.44223 -1.18854,2.38855 0,1.09933 1.1752,2.40801 2.33116,2.59594 0.0649,0.0105 0.51544,-0.40571 1.00119,-0.92502 z m 15.27605,-8.48038 c -1.11962,-0.43746 -1.4081,-0.66522 -1.95336,-1.54218 -0.58076,-0.93404 -1.45159,-3.18029 -1.45159,-3.74426 0,-0.68513 1.63899,-2.1827 2.99066,-2.73262 0.67739,-0.27559 1.50903,-0.4541 2.1156,-0.4541 0.94622,0 1.0457,0.0495 1.8682,0.92878 0.92804,0.99215 0.95775,1.05592 1.31559,2.82397 0.30485,1.5062 0.23688,2.93937 -0.17272,3.64233 -0.76638,1.31526 -2.8723,1.79705 -4.71238,1.07808 z m 2.76221,-1.67816 c 0.59307,-0.49904 0.61147,-0.55819 0.50132,-1.612 -0.0629,-0.60168 -0.26929,-1.51603 -0.45867,-2.0319 -0.27652,-0.75324 -0.49369,-1.01104 -1.10282,-1.30917 l -0.75849,-0.37122 -0.87522,0.48795 c -1.17366,0.65434 -1.66118,1.48169 -1.36974,2.32452 0.42452,1.22769 1.41119,2.43551 2.22656,2.7256 1.06705,0.37965 1.14221,0.3709 1.83706,-0.21378 z m -19.55214,-0.80675 c -0.59642,-0.27091 -0.95149,-0.64267 -1.51119,-1.58224 -0.40237,-0.67547 -0.77624,-1.50329 -0.83082,-1.83959 -0.168,-1.0353 0.47654,-3.4375 1.16283,-4.33384 0.91333,-1.19286 2.58106,-1.64672 3.77749,-1.02802 0.81491,0.4214 2.2511,2.20446 2.48415,3.08411 0.53427,2.0166 -0.62908,4.64582 -2.46793,5.57763 -1.13318,0.57423 -1.57358,0.59477 -2.61453,0.12195 z m 2.31966,-2.24627 c 1.41873,-1.45977 1.42167,-3.04404 0.008,-4.45746 -1.08491,-1.0849 -1.45268,-1.06426 -2.09597,0.11768 -0.71475,1.31322 -0.85068,2.51113 -0.40145,3.53786 0.86831,1.98457 1.22734,2.10024 2.48916,0.80192 z m 28.3088,35.59333 c 0.37148,-0.15521 1.0776,-0.81932 1.6983,-1.59725 0.98675,-1.23671 1.9678,-2.12863 2.35353,-2.1397 0.0895,-0.003 0.68235,-0.48418 1.31743,-1.07024 l 1.15469,-1.06557 -1.63581,0.0897 c -1.65956,0.091 -3.84456,0.73046 -6.06729,1.77564 -0.88109,0.41431 -3.94005,3.00226 -3.94005,3.33337 0,0.0767 0.67117,0.37153 1.49148,0.65528 1.57794,0.54581 2.35669,0.54984 3.62772,0.0188 z m -42.25704,-5.69871 c -0.64799,-1.70912 -1.25037,-3.20914 -1.57257,-3.91591 -0.19619,-0.43034 -0.35818,-1.03656 -0.36,-1.34714 -0.004,-0.74542 -0.62534,-3.10757 -1.00854,-3.83633 -0.56178,-1.06839 -2.8076,-2.91687 -3.30975,-2.72417 -0.15696,0.0602 -0.32106,0.53888 -0.39922,1.16444 -0.10986,0.87935 -0.0599,1.21246 0.28999,1.93534 0.23248,0.48025 0.50212,0.92226 0.5992,0.98226 0.0971,0.06 0.12473,0.31537 0.0614,0.5675 -0.0799,0.31843 0.0315,0.65272 0.36486,1.09478 0.26395,0.35001 0.76401,1.19929 1.11124,1.8873 0.4346,0.86112 1.20217,1.83367 2.46324,3.12107 1.00756,1.02858 1.86964,1.83242 1.91575,1.78632 0.0461,-0.0461 -0.0239,-0.36806 -0.15565,-0.71546 z m 48.51719,-2.25937 c 1.01923,-0.0892 2.02058,-0.25172 2.22522,-0.36124 0.7402,-0.39614 1.94021,-1.91378 2.32001,-2.93409 0.37573,-1.0094 0.92964,-4.36367 0.75022,-4.54309 -0.1576,-0.1576 -1.34153,0.54691 -2.81848,1.67719 -0.79386,0.60751 -1.7401,1.2547 -2.10278,1.4382 -1.37107,0.6937 -3.86314,3.71336 -3.86314,4.68101 0,0.44303 0.0437,0.46099 0.81791,0.33608 0.44985,-0.0726 1.65182,-0.2049 2.67104,-0.29406 z m 4.49134,-9.85875 c 1.21538,-0.80504 1.72192,-1.88708 1.59558,-3.4084 -0.0493,-0.5931 0.0167,-1.59447 0.14665,-2.22527 0.28639,-1.39054 -0.0604,-5.84282 -0.52404,-6.72768 l -0.28709,-0.54794 -0.94572,1.16881 c -0.52015,0.64284 -1.41275,2.07425 -1.98356,3.1809 -1.01437,1.96661 -1.03525,2.03973 -0.92359,3.23491 0.26838,2.87247 1.16127,5.9378 1.7296,5.9378 0.14657,0 0.68305,-0.27591 1.19217,-0.61313 z m -60.33066,-3.57263 c 0.11164,-0.39692 0.33148,-0.88979 0.48854,-1.09525 0.33549,-0.43891 0.3796,-2.16675 0.0826,-3.23616 -0.25698,-0.92535 -2.0702,-3.143 -2.34507,-2.86813 -0.34018,0.34018 -0.0773,3.32665 0.37291,4.23662 0.395,0.79837 0.39525,0.80953 0.0235,1.06989 -0.30675,0.21485 -0.3512,0.39337 -0.24239,0.97338 0.12615,0.67246 0.85847,1.64133 1.24059,1.64133 0.097,0 0.26762,-0.32475 0.37927,-0.72168 z m 59.75197,-11.08804 c 0.64562,-1.26055 0.72652,-1.54501 0.52924,-1.86091 -0.29958,-0.47971 -0.29452,-1.07095 0.0182,-2.12769 0.20531,-0.69373 0.20583,-0.93626 0.003,-1.32962 -0.13655,-0.26462 -0.25147,-0.74093 -0.25539,-1.05847 -0.004,-0.31754 -0.17647,-0.79385 -0.38345,-1.05847 -0.20699,-0.26461 -0.37827,-0.67086 -0.38062,-0.90277 -0.008,-0.74927 -0.33732,-0.65403 -0.63484,0.18337 -0.15939,0.44859 -0.56477,1.46514 -0.90084,2.25899 -0.33608,0.79385 -0.73666,1.98269 -0.89017,2.64187 -0.25831,1.10914 -0.25159,1.27682 0.0901,2.24911 0.39606,1.12686 1.50105,2.66475 1.83776,2.55775 0.11275,-0.0358 0.54795,-0.73475 0.96711,-1.55316 z M 147.6318,127.5183 c 0.14771,-0.23611 0.77343,-1.76636 1.39049,-3.40055 l 1.12191,-2.97125 -0.4286,-1.33077 -0.4286,-1.33076 -0.8698,0.13673 c -0.47839,0.0752 -1.21621,0.15795 -1.63959,0.18389 -0.65298,0.04 -0.86471,0.17058 -1.39526,0.8605 -0.344,0.44735 -0.62546,1.01224 -0.62546,1.25532 0,0.58704 0.51711,2.0293 0.86568,2.41446 0.153,0.16907 0.32765,0.82288 0.3881,1.45292 0.10253,1.06859 0.50813,2.74748 0.76364,3.1609 0.16074,0.26008 0.54624,0.0661 0.85749,-0.43139 z m 59.28138,-8.21473 c 0.11073,-0.20688 0.24559,-0.90529 0.2997,-1.55202 0.0816,-0.97555 0.0317,-1.26945 -0.29279,-1.72523 -0.21516,-0.30215 -0.47478,-0.99014 -0.57695,-1.52887 -0.32565,-1.71716 -1.57175,-4.0075 -3.17603,-5.83755 -1.48911,-1.69869 -2.20712,-2.09694 -2.48324,-1.37738 -0.36076,0.94012 0.13873,4.12616 0.93284,5.95017 1.25588,2.8847 1.86079,3.84371 3.24699,5.14775 0.75932,0.71433 1.4858,1.29889 1.61438,1.29903 0.12859,1.4e-4 0.32438,-0.16901 0.4351,-0.3759 z m -55.42058,-3.54241 c 0.58216,-0.15611 1.37581,-0.33675 1.76367,-0.40142 0.87418,-0.14577 2.02526,-1.27338 2.26954,-2.22327 0.0953,-0.37047 0.20105,-1.10401 0.23506,-1.6301 0.07,-1.08341 0.33736,-0.90582 -2.50059,-1.66113 -1.57367,-0.41883 -1.60603,-0.4198 -1.95352,-0.0588 -0.48065,0.49934 -2.50844,4.52817 -2.50844,4.98379 0,0.49099 0.96065,1.4697 1.33617,1.36128 0.1648,-0.0476 0.77596,-0.21423 1.35811,-0.37034 z m 47.24299,-8.49438 0.0756,-2.30939 -1.38848,-1.36689 c -1.14523,-1.12743 -1.77474,-1.55506 -3.59324,-2.44093 -1.21262,-0.59072 -2.24327,-1.03552 -2.29035,-0.98845 -0.0471,0.0471 0.0945,0.40937 0.31453,0.80511 0.22006,0.39575 0.58508,1.32362 0.81116,2.06195 0.50818,1.65961 1.13433,2.74889 2.07756,3.61425 0.39866,0.36574 1.31324,1.20272 2.0324,1.85994 0.71917,0.65722 1.43757,1.16769 1.59644,1.13437 0.23219,-0.0487 0.30369,-0.51366 0.36442,-2.36996 z m -37.13942,1.10114 c 1.36879,-0.71106 3.60219,-3.98259 2.7552,-4.03589 -0.99815,-0.0628 -4.19174,-0.45346 -4.58347,-0.56067 -0.26461,-0.0724 -0.574,-0.25672 -0.68752,-0.40956 -0.17824,-0.23998 -0.29637,-0.23156 -0.86602,0.0617 -1.96274,1.01051 -4.98972,3.50021 -4.98972,4.10407 0,0.37421 0.5481,0.57599 2.11694,0.77933 0.8997,0.11661 1.93892,0.29459 2.30939,0.39551 1.06461,0.29 3.07039,0.11994 3.9452,-0.33451 z m 28.28553,-4.88689 c 0.64188,-0.29245 0.80015,-0.94884 0.38249,-1.58626 -0.38427,-0.58648 -3.05356,-2.422168 -3.52209,-2.422168 -0.17671,0 -0.55699,-0.249727 -0.84507,-0.554949 -0.78011,-0.826531 -2.78204,-1.562619 -4.2401,-1.559041 -1.61553,0.004 -1.90854,0.210491 -1.05076,0.740624 0.36586,0.226117 0.72359,0.411122 0.79495,0.411122 0.0714,0 0.23434,0.0858 0.36218,0.190675 0.12784,0.104871 1.10567,0.92132 2.17294,1.814327 2.43132,2.03433 4.18438,3.10064 5.21916,3.17457 0.12733,0.009 0.45417,-0.0849 0.7263,-0.2089 z m -19.09943,-1.14696 c 1.85703,-0.3635 1.9372,-0.88412 0.30536,-1.98307 -0.7061,-0.475512 -1.23445,-0.685949 -1.72224,-0.685949 -0.44794,0 -0.74392,-0.104906 -0.81444,-0.288673 -0.17572,-0.457917 -0.825,-0.345017 -2.90026,0.504303 -2.58151,1.056509 -4.18811,1.877609 -4.06465,2.077369 0.0554,0.0897 0.76821,0.22564 1.58393,0.30208 0.81573,0.0764 1.66135,0.21485 1.87916,0.30758 0.49292,0.20987 4.24948,0.0568 5.73314,-0.23364 z m 11.64254,-0.55208 c 0.0684,-0.41481 -2.04246,-1.879064 -3.65482,-2.535217 -0.75274,-0.306333 -1.63392,-0.717905 -1.95817,-0.914605 -0.32425,-0.1967 -0.86277,-0.415352 -1.19671,-0.485895 -0.96775,-0.204426 -4.10521,-0.18531 -4.31682,0.0263 -0.12868,0.128679 0.0953,0.428794 0.67407,0.903013 1.01979,0.835642 1.77556,1.174086 3.74875,1.678744 0.79984,0.20457 1.793,0.5485 2.20703,0.7643 1.68687,0.87925 4.38869,1.21774 4.49667,0.56336 z m -32.93464,0.6518 c -0.16824,-0.43841 0.11871,-0.69957 0.68121,-0.61998 0.30544,0.0432 0.4552,0.19104 0.4552,0.4493 0,0.51238 -0.95051,0.65514 -1.13641,0.17068 z m 56.38751,64.75821 c 0.21845,-0.24281 0.36661,-0.69002 0.36661,-1.10659 v -0.69909 h 0.98932 c 1.23043,0 1.80119,-0.43785 1.80119,-1.38178 0,-0.56666 0.0729,-0.66314 0.57735,-0.76402 0.642,-0.1284 0.67609,-0.21742 0.354,-0.92433 -0.28904,-0.63438 -0.46525,-0.61781 -1.14281,0.10753 -0.41265,0.44174 -0.55833,0.78787 -0.55833,1.32655 0,0.77454 -0.25976,1.0095 -0.92401,0.83579 -0.44308,-0.11587 -0.99075,0.14091 -2.01788,0.94608 -0.62302,0.48838 -0.68589,0.60299 -0.43344,0.79006 0.1624,0.12035 0.31436,0.45697 0.33768,0.74805 0.051,0.63602 0.16793,0.65791 0.65032,0.12175 z m 6.29192,-6.08767 c 0.15907,-0.39692 0.24983,-0.78663 0.20167,-0.86602 -0.1795,-0.29591 -1.1137,-0.13006 -1.54391,0.27411 -0.48989,0.46023 -0.58777,0.7788 -0.19271,0.6272 0.13898,-0.0533 0.41221,0.0793 0.60717,0.29471 0.4872,0.53835 0.59516,0.49995 0.92778,-0.33 z m 1.67642,-3.33762 c 0,-0.21414 -1.06883,0.3006 -1.25725,0.60548 -0.0698,0.11298 -0.019,0.46597 0.11286,0.78442 l 0.23983,0.57899 0.45228,-0.89222 c 0.24875,-0.49073 0.45228,-0.97523 0.45228,-1.07667 z m 45.58876,-3.14706 c -0.14556,-0.14556 -2.88936,-0.64689 -4.28797,-0.78348 -0.72964,-0.0713 -1.68227,-0.2611 -2.11694,-0.42188 -0.43467,-0.16079 -1.30992,-0.48079 -1.945,-0.71111 -1.48537,-0.53871 -3.75754,-2.02696 -4.50756,-2.95242 -0.32208,-0.39743 -1.18864,-1.4584 -1.92569,-2.35773 -0.73705,-0.89933 -1.53368,-2.02516 -1.77029,-2.50184 -0.23662,-0.47668 -0.84036,-1.40379 -1.34166,-2.06025 -0.5013,-0.65645 -0.97216,-1.39257 -1.04635,-1.63581 -0.0742,-0.24324 -0.23925,-0.57216 -0.3668,-0.73093 -0.38469,-0.47883 -1.26215,-3.43718 -1.26215,-4.2553 0,-1.24169 0.56954,-3.63446 1.17161,-4.92221 0.30823,-0.65927 0.56043,-1.27183 0.56043,-1.36124 0,-0.0894 0.25342,-0.50716 0.56315,-0.92833 0.30974,-0.42117 0.62244,-1.00198 0.6949,-1.29068 0.21287,-0.84816 2.5594,-3.40011 4.42406,-4.81136 4.36693,-3.30508 10.48872,-5.20921 16.73817,-5.20628 3.35478,0.002 4.54125,0.15192 6.75418,0.85583 2.14709,0.68298 2.78869,1.10585 5.43685,3.58337 1.43442,1.34198 2.34406,2.37826 2.91035,3.3155 0.81795,1.35375 1.90794,4.16794 2.04992,5.29258 0.0407,0.32274 0.20061,1.23632 0.35527,2.03017 0.15466,0.79385 0.33897,2.48259 0.40958,3.75275 0.12384,2.22785 0.10697,2.3785 -0.47787,4.26693 -0.91138,2.94285 -1.88883,4.72589 -3.76441,6.86698 -2.03823,2.32676 -3.60301,3.72061 -4.725,4.20885 -0.47631,0.20727 -1.67407,0.76401 -2.66169,1.2372 -2.62647,1.25839 -4.19689,1.60645 -7.24813,1.60645 -1.39436,0 -2.57379,-0.0386 -2.62096,-0.0858 z m 3.96681,-1.93495 c 0,-0.10585 -0.47631,-0.21906 -1.05847,-0.25159 -0.68839,-0.0385 -0.99118,0.006 -0.86602,0.12804 0.388,0.37737 1.92449,0.47601 1.92449,0.12355 z m -7.22576,-0.81791 c -0.0128,-0.20718 -3.67826,-1.98395 -4.08009,-1.97777 -0.64392,0.01 -2.75158,-1.13907 -4.04194,-2.20342 -0.71447,-0.58933 -1.29903,-0.97185 -1.29903,-0.85004 0,0.1218 0.74285,0.9806 1.65079,1.90843 1.44828,1.48003 1.8201,1.75052 3.03107,2.20506 0.75915,0.28496 1.93414,0.59536 2.61108,0.68978 0.67694,0.0944 1.27593,0.21683 1.3311,0.27199 0.15468,0.15468 0.80709,0.11864 0.79702,-0.044 z m 10.78607,-2.05589 c 0.89969,-0.29571 2.21723,-0.75073 2.92786,-1.01114 3.72368,-1.36455 7.65824,-5.26843 8.76286,-8.69453 0.42798,-1.32745 0.46254,-1.67598 0.35793,-3.61032 -0.32738,-6.05391 -2.07245,-10.42062 -5.20546,-13.02572 -0.48491,-0.4032 -1.00395,-1.0258 -1.15343,-1.38356 -0.44757,-1.07119 -2.86796,-2.27621 -5.01619,-2.49737 -2.71287,-0.27928 -3.75931,-0.29695 -5.77347,-0.0975 -1.27016,0.1258 -2.61249,0.24963 -2.98296,0.27519 -3.76521,0.25969 -10.24391,3.29151 -12.57036,5.88251 -0.65092,0.72494 -0.92328,1.27959 -1.42425,2.90046 -0.34068,1.10226 -0.65722,2.30722 -0.70342,2.67769 -0.56481,4.52912 -0.56467,4.52523 -0.22394,6.08688 0.21328,0.9775 0.6748,2.16337 1.30109,3.34311 2.27162,4.27906 3.72129,5.64897 8.00128,7.56105 4.17805,1.86654 5.935,2.25444 9.85348,2.17547 1.82442,-0.0368 2.50049,-0.13904 3.84898,-0.58227 z m -0.26845,-9.84096 c -1.02549,-0.37581 -1.18192,-0.53346 -1.8669,-1.8814 -0.80355,-1.5813 -0.68905,-2.55276 0.53226,-4.51608 0.77144,-1.24014 1.00107,-1.46261 1.93667,-1.87638 1.32017,-0.58384 2.12109,-0.59376 2.94,-0.0364 0.95788,0.65192 1.30206,1.25164 1.62528,2.83203 0.26666,1.30377 0.26513,1.53919 -0.0165,2.54298 -0.25547,0.91047 -0.50801,1.2947 -1.42738,2.17163 -1.04737,0.99902 -1.17488,1.0646 -2.04542,1.05188 -0.51063,-0.007 -1.26573,-0.13717 -1.67799,-0.28825 z m 2.5468,-2.28487 c 0.94185,-1.02179 1.09235,-1.51306 0.8062,-2.63171 -0.50496,-1.97407 -0.84401,-2.2873 -2.11843,-1.95707 -0.77831,0.20168 -1.56001,1.55072 -1.6872,2.91175 -0.0719,0.76978 1.6e-4,1.01097 0.51233,1.71376 0.82093,1.12649 1.42308,1.11759 2.4871,-0.0367 z m -13.92151,-0.34415 c -0.67902,-0.24248 -2.93405,-1.80315 -3.40956,-2.35971 -0.58854,-0.68886 -0.43505,-1.67929 0.4298,-2.7734 1.14797,-1.4523 2.37431,-2.02691 4.34097,-2.03401 1.48097,-0.005 1.59549,0.0259 2.44748,0.66796 1.19884,0.90344 1.51865,1.58265 1.27143,2.70022 -0.25081,1.13378 -1.32842,2.73973 -2.32073,3.45856 -0.85353,0.61829 -1.6916,0.72167 -2.75939,0.34038 z m 2.06631,-2.12095 c 0.90104,-0.96348 1.16861,-1.45828 1.14963,-2.1259 -0.0288,-1.01432 -1.20867,-1.68085 -1.77257,-1.00139 -0.15364,0.18512 -0.57972,0.28867 -1.18782,0.28867 -1.36573,0 -2.08381,0.42029 -2.08381,1.21967 0,0.48579 0.14301,0.74123 0.61679,1.10164 1.7201,1.30851 2.43269,1.42097 3.27778,0.51731 z m -11.98624,9.46162 c -0.11815,-0.22076 -0.26344,-0.35275 -0.32287,-0.29332 -0.0594,0.0594 0.001,0.24005 0.13538,0.40138 0.34599,0.41689 0.43956,0.36295 0.18749,-0.10806 z m -2.10328,-3.55019 c -1.62049,-3.26245 -1.74017,-4.14332 -1.19537,-8.79816 0.0836,-0.71447 0.0914,-1.29903 0.0172,-1.29903 -0.16464,0 -1.06782,2.4896 -1.30082,3.58567 -0.37632,1.77024 0.56768,4.54122 2.52652,7.41629 0.553,0.81165 1.02491,1.45629 1.04868,1.43251 0.0238,-0.0238 -0.46954,-1.07554 -1.09625,-2.33728 z m 42.62257,4.14402 c -0.0654,-0.10585 -0.0272,-0.19245 0.0849,-0.19245 0.11209,0 0.20381,0.0866 0.20381,0.19245 0,0.10585 -0.0382,0.19245 -0.0849,0.19245 -0.0467,0 -0.13839,-0.0866 -0.20381,-0.19245 z"
       id="path2" /></g></svg>
